<svg width="800" height="578" viewBox="0 0 800 578" fill="none" xmlns="http://www.w3.org/2000/svg">
<g clip-path="url(#clip0_1_3)">
<path d="M0 0H800V578H0V0ZM106.177 343.636C104.039 343.547 102.627 343.646 101.941 343.933C99.9471 344.773 97.8165 345.575 95.5493 346.339C92.7734 347.274 89.9957 348.506 87.2164 350.036C86.0896 350.657 84.9595 351.249 83.8259 351.812C82.7025 352.368 81.5621 352.938 80.4046 353.522C78.8528 354.305 77.5672 355.432 76.1332 356.42C73.9411 357.938 71.7525 359.532 69.5672 361.201C67.2522 362.973 65.4392 365.21 63.1549 366.838C62.3252 367.428 61.5604 368.143 60.8604 368.983C59.4844 370.638 57.8626 372.321 55.9949 374.031C53.6799 376.151 51.8771 378.721 49.7618 380.968C48.3278 382.487 46.8801 384.231 45.4187 386.2C41.9906 390.811 38.8425 395.262 35.9744 399.552C34.3252 402.023 31.9232 406.322 28.7682 412.448C28.3944 413.17 27.831 413.805 27.4673 414.527C25.5894 418.23 23.7559 421.814 21.9667 425.278C20.2766 428.551 18.5813 432.998 16.8809 438.62C15.7234 442.439 14.5864 446.362 13.4699 450.389C13.0158 452.031 12.6948 453.576 12.507 455.023C12.3022 456.606 11.9556 458.064 11.4673 459.395C10.9654 460.767 10.6137 462.272 10.4123 463.91C9.39138 472.163 8.83653 478.081 8.74776 481.665C8.60435 487.29 9.16261 494.143 10.4225 502.225C10.7401 504.27 11.2386 506.464 11.9181 508.809C12.5668 511.048 13.1831 513.2 13.767 515.265C14.8869 519.231 16.5156 523.618 18.653 528.427C19.8412 531.105 21.3521 533.613 22.7401 536.117C23.7781 537.99 24.9577 539.825 26.2791 541.62C28.3551 544.446 30.4225 547.187 32.4814 549.842C33.6594 551.358 35.0013 552.643 36.1997 554.086C37.0158 555.073 38.0384 556.027 39.2676 556.948C41.9582 558.962 44.6829 560.952 47.4417 562.918C44.1332 563.163 40.8468 563.276 37.5826 563.256C33.1404 563.225 30.1921 563.233 28.7375 563.281C25.9445 563.377 22.9979 563.489 19.8976 563.619C17.0243 563.737 16.4609 567.879 19.4417 568.099C23.1601 568.37 26.9808 568.621 30.7913 568.616C55.2352 568.558 80.379 568.467 106.223 568.344C136.437 568.201 166.651 568.088 196.866 568.007C220.715 567.942 254.154 567.875 297.183 567.807C298.231 567.803 299.298 567.802 300.384 567.802C327.802 567.785 353.453 567.737 377.337 567.658C404.526 567.57 431.116 567.486 457.106 567.408C457.714 567.408 458.312 567.409 458.899 567.413C478.832 567.532 498.166 567.575 516.901 567.541C525.533 567.524 533.943 567.45 542.131 567.321C545.552 567.266 548.965 567.24 552.369 567.244C601.601 567.292 652.946 567.251 706.402 567.121C707.385 567.117 708.367 567.116 709.347 567.116C727.396 567.078 746.388 566.981 766.325 566.824C767.918 566.814 770.136 566.445 770.878 564.827C771.585 563.281 770.883 561.73 769.245 561.233C768.261 560.933 767.372 560.774 766.576 560.757C762.223 560.668 757.06 560.665 751.088 560.747C743.892 560.839 735.99 560.665 727.913 560.829C722.016 560.948 715.107 560.858 707.186 560.558C707.015 560.349 706.947 560.128 706.981 559.892C706.992 559.81 707.02 559.732 707.064 559.662C707.107 559.592 707.164 559.533 707.232 559.488C712.657 555.801 717.651 552.218 722.213 548.736C725.057 546.569 728.389 543.784 732.21 540.381C733.721 539.03 735.047 537.484 736.271 535.932C738.351 533.301 740.428 530.716 742.504 528.176C745.501 524.521 747.882 520.789 750.561 517.036C752.236 514.681 753.562 512.254 755.104 509.874C756.196 508.181 757.248 506.386 758.259 504.488C761.629 498.15 764.673 491.66 767.39 485.018C768.947 481.214 770.223 477.318 771.8 473.658C772.493 472.054 773.089 470.482 773.588 468.943C774.878 464.99 776.574 461.161 777.869 457.045C779.293 452.529 780.732 447.758 782.187 442.731C783.754 437.314 785.441 430.527 787.247 422.37C787.974 419.09 788.635 415.747 789.229 412.341C791.073 401.784 793.029 390.987 793.577 380.599C793.919 374.043 794.127 362.836 794.202 346.979C794.228 340.651 793.798 333.981 793.444 327.76C793.316 325.497 792.891 323.163 792.876 320.849C792.855 317.188 792.225 313.518 791.969 309.857C791.843 308.062 791.618 306.222 791.293 304.338C790.962 302.437 790.614 300.145 790.248 297.463C789.542 292.282 788.481 286.346 787.068 279.657C786.713 277.971 786.289 276.303 785.798 274.655C785.352 273.175 785.178 271.696 784.825 270.196C783.524 264.667 781.885 258.989 779.908 253.163C778.426 248.794 777.006 244.403 775.647 239.99C774.738 237.048 772.014 229.97 767.472 218.754C766.506 216.369 765.565 214.046 764.65 211.787C763.247 208.326 761.704 204.865 760.02 201.404C759.216 199.745 758.622 197.969 757.772 196.346C755.72 192.418 753.68 188.356 751.652 184.161C750.201 181.161 748.657 178.265 747.022 175.473C744.167 170.596 741.275 165.71 738.346 160.816C733.548 152.802 728.217 145.116 722.351 137.758C720.246 135.116 718.448 132.274 716.241 129.689C714.827 128.027 713.321 126.184 711.723 124.16C708.644 120.255 704.736 115.605 700 110.209C697.565 107.431 695.274 105.083 693.127 103.165C690.252 100.598 687.474 98.3095 684.794 96.2992C681.933 94.1558 678.827 92.0124 675.478 89.869C669.581 86.0976 663.923 83.0549 658.504 80.7408C653.54 78.6213 647.677 76.3977 640.917 74.07C638.32 73.1792 635.616 72.6724 633.004 71.756C631.252 71.1416 629.21 70.6518 626.878 70.2866C623.898 69.819 621.299 69.5119 619.083 69.3651C613.453 68.9999 606.704 68.8549 598.837 68.93C593.198 68.9811 587.636 69.401 581.9 69.7337C576.645 70.0409 571.232 70.8396 565.854 71.5512C563.355 71.8788 561.096 72.7236 558.556 72.7133C557.649 72.7082 556.86 73.0461 555.98 73.1946C552.543 73.7884 549.147 74.4335 545.823 75.4369C542.023 76.5871 538.197 77.5752 534.346 78.4012C532.845 78.7237 531.508 79.3227 529.987 79.7067C529.752 79.7681 529.605 79.92 529.547 80.1623C529.506 80.3398 529.397 80.4353 529.219 80.449L528.763 80.4797C528.2 65.505 528.056 50.5507 527.882 35.709C527.862 33.9308 527.706 32.6919 527.416 31.9922C526.88 30.6953 525.915 29.7789 524.522 29.243C522.221 28.3556 519.887 27.4051 517.521 26.3914C501.706 19.6097 485.912 12.8467 470.141 6.10253C467.959 5.17077 465.823 5.16565 463.734 6.08717C445.634 14.0703 427.348 21.9749 408.876 29.801C407.059 30.569 406.134 31.8813 406.1 33.738C406.004 38.5504 405.962 44.083 405.972 50.3357C405.977 52.0763 405.716 53.3767 403.519 53.3716C342.363 53.1327 283.443 52.8613 226.761 52.5576C209.439 52.462 192.623 52.4227 176.312 52.4398C169.618 52.4449 167.052 56.3921 166.735 62.5868C165.951 77.925 166.248 93.4322 166.187 108.663C166.184 109.615 166.146 110.593 166.074 111.596C166.051 111.917 165.901 112.216 165.657 112.427C165.413 112.638 165.096 112.744 164.773 112.723C161.181 112.48 157.596 112.358 154.018 112.354C145.168 112.344 135.399 112.339 124.712 112.339C121.017 112.342 117.477 112.515 114.09 112.856C110.385 113.231 108.138 115.51 107.35 119.691C106.913 122.005 106.692 124.515 106.689 127.221C106.665 151.751 106.627 176.197 106.576 200.559C106.535 220.111 106.443 239.668 106.382 259.219C106.378 260.301 106.358 261.383 106.32 262.465C106.228 265.163 106.397 267.872 106.402 270.564C106.436 292.23 106.387 313.905 106.254 335.588C106.236 338.196 106.211 340.878 106.177 343.636Z" fill="white"/>
<path d="M528.763 80.4797C528.292 90.3042 528.691 100.124 528.953 109.953C529.07 114.402 527.078 116.47 523.385 118.825C504.948 130.575 487.042 142.657 469.173 155.241C466.576 157.069 465.132 155.799 462.971 154.289C456.152 149.514 449.023 144.601 441.583 139.549C441.407 139.43 441.202 139.362 440.991 139.352C440.779 139.342 440.568 139.39 440.383 139.493C440.197 139.595 440.043 139.747 439.939 139.931C439.834 140.116 439.783 140.326 439.79 140.537C440.215 152.696 440.558 165.163 440.389 177.521C439.881 214.116 439.684 248.673 439.8 281.193C439.852 295.746 439.848 309.483 439.79 322.405C439.64 356.212 439.56 390.692 439.549 425.846C439.549 427.003 439.273 428.104 439.344 429.261C439.354 429.419 439.4 429.572 439.479 429.709C439.557 429.846 439.667 429.963 439.798 430.051C439.929 430.139 440.079 430.195 440.236 430.215C440.393 430.235 440.552 430.219 440.702 430.167C441.057 430.044 441.383 429.86 441.68 429.614C453.057 420.235 465.345 410.303 478.545 399.818C491.785 389.303 505.455 379.509 519.047 369.157C524.948 364.667 531.683 362.701 539.006 361.544C548.389 360.06 557.997 358.546 567.831 357.003C568.784 356.853 569.767 356.797 570.781 356.834C574.428 356.978 577.029 355.143 578.586 351.331C581.099 345.181 583.363 339.093 585.378 333.069C585.702 332.1 585.987 331.1 586.233 330.069C586.264 329.939 586.265 329.804 586.234 329.673C586.204 329.543 586.144 329.422 586.058 329.319C585.973 329.216 585.864 329.134 585.742 329.081C585.619 329.027 585.486 329.003 585.352 329.01C583.461 329.105 581.393 329.236 579.15 329.404C567.114 330.31 558.581 324.704 555.764 312.842C554.177 306.161 554.709 298.804 555.688 291.288C557.443 277.786 560.28 264.534 564.2 251.53C564.548 250.376 564.2 249.641 563.155 249.323C556.871 247.409 551.749 242.898 554.131 235.664C556.046 229.854 560.487 225.072 565.69 221.734C572.936 217.096 581.115 213.741 590.228 211.669C599.051 209.669 608.324 208.531 618.049 208.254C625.27 208.049 632.411 208.723 639.473 210.276C650.166 212.631 665.163 219.374 662.643 232.941C662.445 234.019 662.849 234.734 663.857 235.086C668.435 236.697 671.585 240.081 673.306 245.238C676.753 255.579 675.462 265.665 671.79 276.012C670.469 279.735 668.985 283.314 667.339 286.747C662.986 295.836 658.107 304.418 652.702 312.494C649.762 316.883 645.969 320.357 641.321 322.917C640.57 323.33 640.183 323.962 640.159 324.811C639.985 331.016 639.879 336.747 639.841 342.003C639.807 347.177 640.282 351.781 641.265 355.816C641.548 356.986 642.324 357.65 643.59 357.807C653.482 359.036 663.899 360.758 674.843 362.973C678.769 363.768 681.916 364.678 684.282 365.701C688.656 367.596 692.396 370.514 695.503 374.456C702.441 383.258 709.805 392.501 717.593 402.184C727.751 414.819 736.842 428.437 744.866 443.038C746.634 446.26 747.647 448.751 747.903 450.512C748.343 453.553 747.759 456.552 746.151 459.507C733.624 482.518 719.852 506.531 704.835 531.545C702.568 535.327 700.12 539.083 697.49 542.813C696.384 544.38 695.416 546.284 695.498 548.209C695.648 551.687 695.759 555.168 695.831 558.653C695.862 560.223 696.739 560.921 698.464 560.747C700.468 560.546 703.375 560.483 707.186 560.558C715.107 560.858 722.016 560.948 727.913 560.829C735.99 560.665 743.893 560.839 751.088 560.747C757.06 560.665 762.223 560.669 766.576 560.757C767.372 560.774 768.261 560.933 769.245 561.233C770.884 561.73 771.585 563.281 770.878 564.827C770.136 566.445 767.918 566.814 766.325 566.824C746.388 566.981 727.396 567.078 709.347 567.116C708.367 567.116 707.385 567.118 706.402 567.121C652.946 567.251 601.601 567.292 552.369 567.244C548.965 567.24 545.552 567.266 542.131 567.321C533.943 567.45 525.533 567.524 516.901 567.541C498.166 567.575 478.832 567.532 458.899 567.413C458.312 567.409 457.714 567.408 457.106 567.408C431.116 567.486 404.526 567.57 377.337 567.659C353.453 567.737 327.802 567.785 300.384 567.802C299.298 567.802 298.231 567.804 297.183 567.807C254.155 567.875 220.715 567.942 196.866 568.007C166.651 568.089 136.437 568.201 106.223 568.345C80.379 568.467 55.2352 568.558 30.7913 568.616C26.9808 568.621 23.1601 568.37 19.4417 568.099C16.4609 567.879 17.0243 563.737 19.8976 563.619C22.9979 563.489 25.9445 563.377 28.7375 563.281C30.1921 563.233 33.1404 563.225 37.5826 563.256C40.8468 563.276 44.1332 563.164 47.4417 562.918C64.5446 563.191 81.6799 563.247 98.8476 563.087C102.371 563.053 105.784 563.036 109.086 563.036C139.778 563.042 170.378 563.029 200.886 562.995C204.212 562.991 207.63 562.974 211.14 562.943C250.556 562.568 289.907 562.394 329.193 562.421C329.781 562.421 330.378 562.419 330.986 562.416C352.753 562.365 374.52 562.28 396.287 562.16C404.691 562.114 413.137 562.14 421.665 562.088C452.661 561.904 484.113 561.783 516.021 561.725C516.594 561.721 517.171 561.592 517.752 561.336C518.06 561.201 518.317 560.971 518.485 560.679C518.652 560.387 518.722 560.048 518.684 559.713C518.513 558.204 518.53 556.786 518.735 555.459C519.201 552.418 519.201 549.52 519.303 546.479C519.795 532.209 520.312 521.514 520.855 514.394C521.187 510.022 521.448 505.643 521.639 501.258C522.428 483.1 523.276 465.499 524.184 448.454C524.219 447.768 523.894 447.441 523.211 447.471C523.034 447.478 522.721 447.642 522.274 447.963C494.003 468.189 464.903 489.058 434.976 510.57C429.147 514.763 422.387 516.258 415.903 512.459C410.805 509.473 406.334 506.311 402.489 502.973C395.145 496.594 387.959 489.831 380.481 483.273C380.195 483.02 379.916 482.911 379.647 482.945C379.501 482.964 379.367 483.034 379.27 483.143C379.173 483.253 379.119 483.393 379.119 483.539C379.124 495.979 379.324 508.681 379.437 521.285C379.462 524.736 379.17 527.885 377.127 530.695C375 533.617 372.026 535.197 368.205 535.436C365.258 535.62 362.076 535.784 358.658 535.927C355.216 536.074 351.98 536.136 348.948 536.112C313.857 535.822 280.64 535.566 249.296 535.344C218.225 535.119 178.361 535.11 129.706 535.318C126.264 535.332 122.697 535.173 119.006 534.842C112.553 534.263 107.708 531.535 106.551 524.608C106.141 522.154 105.933 520.412 105.926 519.381C105.629 477.057 106.008 440.555 106.295 401.006C106.407 385.299 106.315 369.587 106.469 353.891C106.499 350.447 106.402 347.029 106.177 343.636C106.211 340.878 106.236 338.196 106.254 335.588C106.387 313.905 106.436 292.23 106.402 270.564C106.397 267.872 106.228 265.163 106.32 262.465C106.358 261.383 106.378 260.301 106.382 259.219C106.443 239.668 106.535 220.111 106.576 200.559C106.627 176.197 106.665 151.751 106.689 127.221C106.692 124.515 106.913 122.005 107.35 119.691C108.138 115.51 110.385 113.231 114.09 112.856C117.477 112.515 121.018 112.342 124.712 112.339C135.399 112.339 145.168 112.344 154.018 112.354C157.596 112.358 161.181 112.48 164.773 112.723C165.096 112.744 165.413 112.638 165.657 112.427C165.901 112.216 166.051 111.917 166.074 111.597C166.146 110.593 166.184 109.615 166.187 108.663C166.248 93.4323 165.951 77.9251 166.735 62.5868C167.053 56.3921 169.618 52.4449 176.312 52.4398C192.623 52.4227 209.439 52.462 226.761 52.5576C283.443 52.8613 342.363 53.1327 403.519 53.3716C405.716 53.3767 405.977 52.0763 405.972 50.3357C405.962 44.083 406.004 38.5504 406.1 33.738C406.134 31.8813 407.059 30.569 408.876 29.8011C427.348 21.9749 445.634 14.0703 463.734 6.08718C465.823 5.16566 467.959 5.17078 470.141 6.10254C485.912 12.8467 501.706 19.6097 517.521 26.3914C519.887 27.4051 522.221 28.3556 524.522 29.243C525.916 29.7789 526.88 30.6953 527.416 31.9922C527.706 32.6919 527.862 33.9308 527.882 35.709C528.056 50.5507 528.2 65.505 528.763 80.4797ZM520.574 31.1373C503.595 24.0876 487.124 17.0021 470.499 9.91662C468.69 9.14186 466.843 9.14186 464.958 9.91662C452.212 15.1557 439.471 20.3913 426.735 25.6235C422.259 27.4631 417.699 29.5075 413.055 31.7567C410.976 32.7602 409.808 33.866 409.828 36.093C409.934 47.1138 409.953 59.4861 409.885 73.2099C409.844 80.6487 409.419 88.3229 409.398 95.649C409.383 100.185 408.753 104.695 408.978 109.073C409.163 112.554 411.232 114.161 413.88 115.887C430.843 126.925 446.991 137.744 462.325 148.345C464.917 150.132 466.535 151.545 469.316 149.604C485.613 138.229 502.868 126.872 521.081 115.533C522.706 114.523 523.853 113.184 524.522 111.515C524.997 110.337 525.209 108.67 525.158 106.513C525.004 99.6594 524.915 93.207 524.891 87.1557C524.843 75.1793 524.756 62.766 524.63 49.9159C524.599 46.7451 524.487 42.8696 524.292 38.2893C524.149 34.8848 523.718 32.4428 520.574 31.1373ZM187.472 69.1296C187.472 68.133 187.076 67.1772 186.371 66.4725C185.666 65.7678 184.71 65.3719 183.713 65.3719C182.716 65.3719 181.76 65.7678 181.055 66.4725C180.35 67.1772 179.954 68.133 179.954 69.1296C179.954 70.1263 180.35 71.0821 181.055 71.7868C181.76 72.4915 182.716 72.8874 183.713 72.8874C184.71 72.8874 185.666 72.4915 186.371 71.7868C187.076 71.0821 187.472 70.1263 187.472 69.1296ZM246.892 67.356C246.345 66.4874 245.46 65.8811 244.431 65.6706C243.403 65.4601 242.316 65.6625 241.409 66.2334C240.96 66.516 240.569 66.8807 240.258 67.3064C239.947 67.7321 239.722 68.2107 239.596 68.7147C239.47 69.2187 239.445 69.7382 239.524 70.2438C239.602 70.7493 239.782 71.2309 240.053 71.661C240.6 72.5296 241.485 73.1358 242.514 73.3464C243.542 73.5569 244.629 73.3544 245.536 72.7836C245.985 72.5009 246.376 72.1363 246.687 71.7106C246.998 71.2848 247.223 70.8063 247.349 70.3023C247.475 69.7983 247.5 69.2787 247.421 68.7732C247.343 68.2677 247.163 67.7861 246.892 67.356ZM216.502 68.2554C216.096 67.3898 215.344 66.7294 214.412 66.4195C213.48 66.1096 212.443 66.1756 211.531 66.603C211.079 66.8146 210.671 67.1086 210.33 67.4681C209.989 67.8277 209.723 68.2457 209.545 68.6984C209.368 69.1511 209.283 69.6296 209.295 70.1066C209.308 70.5836 209.418 71.0497 209.619 71.4783C210.024 72.3439 210.776 73.0043 211.708 73.3142C212.641 73.6241 213.677 73.5581 214.59 73.1307C215.042 72.9191 215.45 72.6251 215.79 72.2656C216.131 71.906 216.398 71.488 216.575 71.0353C216.753 70.5826 216.838 70.1041 216.825 69.6271C216.812 69.1501 216.702 68.684 216.502 68.2554ZM228.599 414.281C228.517 414.08 228.492 413.872 228.522 413.657C228.666 412.581 229.277 412.083 230.356 412.162C231.631 412.254 232.825 412.407 234.146 412.402C261.624 412.351 288.497 412.469 314.919 412.208C315.011 412.206 315.101 412.181 315.18 412.135C315.259 412.088 315.324 412.022 315.37 411.942C315.415 411.862 315.439 411.772 315.439 411.681C315.439 411.589 315.415 411.499 315.37 411.419C315.165 411.064 314.875 410.778 314.499 410.559C311.604 408.911 309.217 407.33 307.339 405.818C303.196 402.481 296.676 394.376 299.493 388.576C299.831 387.879 300.089 387.159 300.266 386.415C300.294 386.306 300.26 386.217 300.164 386.149C299.953 386.009 299.708 385.932 299.457 385.929C279.449 385.717 258.844 385.414 237.644 385.018C234.658 384.961 229.787 385.376 227.928 382.345C226.972 380.789 226.498 379.031 226.505 377.072C226.535 361.058 226.61 345.851 226.73 331.452C226.771 326.951 227.298 323.665 232.077 322.564C233.757 322.178 235.612 321.987 237.644 321.991C248.669 322.014 259.467 322.09 270.038 322.216C293.298 322.496 316.558 322.779 339.821 323.066C349.292 323.182 358.938 323.294 368.758 323.404C371.326 323.434 373.125 323.622 374.156 323.967C378.423 325.39 379.186 329.562 379.165 334.032C379.117 347.087 379.112 360.399 379.15 373.97C379.155 376.596 378.755 379.161 377.869 381.552C376.589 385.023 373.562 385.458 370.3 385.417C363.174 385.325 356.268 385.282 349.583 385.289C348.203 385.289 346.846 385.361 345.511 385.504C345.412 385.515 345.316 385.547 345.23 385.598C345.144 385.649 345.07 385.717 345.013 385.799C344.956 385.88 344.916 385.973 344.898 386.07C344.88 386.168 344.883 386.268 344.907 386.364C346.499 392.881 348.359 399.235 353.618 403.566C353.852 403.757 354.149 403.851 354.45 403.831C354.751 403.81 355.032 403.675 355.237 403.453C356.415 402.178 357.67 401.498 359.36 402.486C361.313 403.626 363.181 404.832 364.963 406.105C376.965 414.672 388.686 423.1 400.128 431.391C404.826 434.794 409.593 438.34 414.428 442.029C417.381 444.282 420.592 444.628 424.061 443.069C426.177 442.116 428 440.161 430.044 438.87C432.364 437.411 434.054 435.102 434.11 432.491C434.301 423.389 434.354 413.872 434.269 403.94C434.04 377.697 434.189 349.623 434.715 319.717C434.868 310.84 434.988 281.531 435.073 231.789C435.114 207.447 435.17 182.982 435.242 158.395C435.257 151.903 435.344 145.15 435.36 138.653C435.365 136.442 434.96 134.85 433.132 133.585C425.917 128.592 418.073 123.208 409.598 117.433C407.426 115.953 405.931 113.578 405.972 110.905C406.009 108.448 406.062 106.052 406.131 103.717C406.269 98.9409 405.905 94.0108 406.038 89.1113C406.045 88.88 406.004 88.6498 405.92 88.4342C405.836 88.2186 405.71 88.0221 405.548 87.8561C405.387 87.6901 405.194 87.558 404.981 87.4676C404.768 87.3772 404.539 87.3303 404.307 87.3297C385.757 87.3024 368.102 87.1778 351.344 86.956C321.246 86.5635 290.604 86.4184 259.416 86.5208C256.039 86.5311 252.621 86.514 249.163 86.4696C243.86 86.4014 237.758 86.3945 230.858 86.4492C220.901 86.5311 209.035 86.4679 195.257 86.2597C187.414 86.1437 180.377 86.2393 174.146 86.5464C173.49 86.5771 172.879 86.7068 172.312 86.9355C172.155 87.0004 172.05 87.1147 171.995 87.2785C171.746 88.0226 171.619 88.7973 171.616 89.6028C171.524 103.323 171.544 117.358 171.677 131.706C171.688 132.894 171.693 134.044 171.693 135.157C171.703 146.932 171.642 159.357 171.626 172.274C171.609 184.093 171.556 196.423 171.467 209.263C171.457 211.054 171.452 212.718 171.452 214.254C171.418 254.381 171.196 292.565 170.786 328.805C170.745 332.324 170.721 335.737 170.714 339.044C170.629 379.922 170.651 420.624 170.781 461.151C170.802 467.264 174.202 470.612 180.425 470.602C184.058 470.595 187.681 470.595 191.293 470.602C224.7 470.677 257.478 470.753 289.629 470.832C304.364 470.868 319.206 470.735 332.4 470.832C343.947 470.921 355.281 471.185 366.402 471.625C366.533 471.631 366.663 471.6 366.777 471.535C366.891 471.471 366.985 471.375 367.047 471.259C367.109 471.144 367.137 471.013 367.128 470.882C367.119 470.751 367.074 470.626 366.996 470.52C366.774 470.209 366.513 469.907 366.213 469.614C359.377 462.914 352.33 455.796 345.07 448.26C343.449 446.581 341.441 445.731 339.047 445.71C303.053 445.403 268.056 444.992 234.059 444.476C232.485 444.453 230.971 444.323 229.516 444.087C229.245 444.044 228.994 443.917 228.799 443.724C228.604 443.531 228.475 443.282 228.43 443.012C228.21 441.686 229.747 441.097 230.73 441.087C246.665 440.944 262.668 441 278.74 441.256C285.958 441.369 302.361 441.55 327.949 441.799C331.088 441.83 334.259 442.029 337.342 441.881C337.816 441.857 338.015 441.562 337.936 440.995C337.909 440.795 337.822 440.611 337.685 440.468C335.773 438.478 333.82 436.423 331.826 434.304C330.894 433.314 330.291 432.341 330.018 431.386C329.68 430.208 330.592 429.179 331.309 428.35C332.845 426.568 330.289 423.978 329.311 422.6C326.827 419.104 323.872 415.986 319.488 415.653C315.14 415.32 310.023 415.592 306.274 415.592C286.61 415.592 266.945 415.588 247.278 415.582C241.813 415.576 235.78 415.387 230.09 415.315C229.362 415.308 228.866 414.964 228.599 414.281ZM124.04 133.968C125.082 134.339 126.24 134.246 127.261 133.709C128.282 133.173 129.082 132.237 129.484 131.108C129.684 130.548 129.779 129.958 129.766 129.371C129.753 128.784 129.631 128.212 129.407 127.687C129.183 127.161 128.862 126.694 128.462 126.31C128.061 125.926 127.59 125.634 127.074 125.451C126.032 125.08 124.874 125.173 123.853 125.71C122.832 126.246 122.032 127.182 121.63 128.312C121.43 128.871 121.335 129.461 121.348 130.048C121.361 130.635 121.483 131.207 121.707 131.732C121.931 132.258 122.252 132.725 122.652 133.109C123.053 133.493 123.524 133.785 124.04 133.968ZM156.289 128.062C156.009 127.635 155.64 127.271 155.204 126.993C154.767 126.714 154.272 126.525 153.746 126.438C153.22 126.35 152.673 126.365 152.137 126.482C151.601 126.599 151.086 126.816 150.622 127.119C149.684 127.733 149.009 128.664 148.746 129.708C148.482 130.753 148.652 131.824 149.217 132.688C149.497 133.115 149.866 133.479 150.302 133.758C150.738 134.036 151.234 134.225 151.76 134.313C152.286 134.4 152.833 134.385 153.369 134.268C153.905 134.151 154.42 133.935 154.884 133.631C155.822 133.017 156.497 132.086 156.76 131.042C157.023 129.998 156.854 128.926 156.289 128.062ZM177.593 474.472C172.845 474.405 168.942 473.136 167.457 468.037C166.429 464.521 165.905 460.475 165.885 455.898C165.736 424.72 166.013 393.608 165.951 362.461C165.945 360.365 165.946 358.148 165.956 355.81C166.168 304.389 166.223 255.626 166.12 209.519C166.066 186.576 166.151 166.565 166.376 149.486C166.387 148.695 166.277 148.007 166.049 147.423C166.02 147.35 165.975 147.285 165.917 147.232C165.859 147.18 165.79 147.142 165.716 147.121C164.558 146.814 163.481 146.671 162.484 146.691C146.317 147.036 130.184 146.997 114.085 146.573C112.623 146.532 111.894 147.121 111.898 148.34C112.041 194.163 111.944 239.983 111.606 285.8C111.478 303.033 111.268 320.275 111.262 337.503C111.256 386.586 111.249 435.009 111.242 482.771C111.242 485.952 111.225 489.365 111.191 493.01C111.112 501.471 111.039 510.422 110.971 519.862C110.943 523.186 111.225 525.48 111.816 526.743C113.007 529.296 115.276 530.579 118.622 530.593C143.076 530.692 166.489 530.791 188.86 530.89C189.953 530.893 191.063 530.897 192.19 530.9C233.19 531.013 265.456 531.054 288.988 531.023C299.464 531.009 312.439 531.164 327.913 531.489C340.625 531.75 353.357 531.627 366.069 531.642C369.926 531.642 373.613 530.414 374.955 526.42C375.433 525 375.674 523.712 375.677 522.555C375.715 509.811 375.624 495.916 375.406 480.871C375.368 478.138 374.148 476.322 371.744 475.424C369.967 474.759 367.283 474.943 365.173 474.938C338.994 474.873 313.316 474.846 288.138 474.856C287.211 474.856 286.341 474.994 285.408 474.994C249.255 475.056 213.408 474.969 177.593 474.472ZM593.209 323.117C594.586 323.521 594.192 325.359 593.163 325.928C592.077 326.527 590.197 327.586 589.992 328.892C588.999 335.143 587.186 340.595 585.188 346.411C584.874 347.319 585.144 347.984 585.998 348.408C589.757 350.271 593.75 351.519 597.977 352.15C602.627 352.846 608.367 353.281 615.196 353.455C619.618 353.568 623.857 353.367 627.913 352.851C629.422 352.66 631.273 352.155 633.465 351.336C634.802 350.834 636.154 350.266 636.072 348.566C635.904 344.986 635.741 341.322 635.58 337.575C635.447 334.373 635.635 331.489 636.143 328.922C636.266 328.312 636.241 327.754 636.067 327.248C635.442 325.431 633.199 326.578 632.046 326.957C631.442 327.155 630.795 327.3 630.105 327.392C628.026 327.675 626.042 327.866 624.154 327.965C618.219 328.272 613.024 326.617 608.569 322.999C603.216 318.658 600.584 312.181 599.723 305.383C599.273 301.813 598.817 298.372 598.356 295.062C598.338 294.928 598.285 294.8 598.204 294.692C598.123 294.584 598.015 294.499 597.892 294.444C597.768 294.389 597.632 294.367 597.498 294.379C597.363 294.391 597.233 294.438 597.122 294.514C596.302 295.077 594.878 296.285 593.88 295.63C592.756 294.893 592.601 293.998 593.414 292.947C596.502 288.944 599.749 285.063 601.419 280.143C602.17 277.921 602.137 275.693 601.321 273.457C599.677 268.936 594.182 274.21 592.328 275.541C591.017 276.483 589.49 275.489 589.752 273.938C590.056 272.112 590.843 270.551 592.113 269.254C594.182 267.134 597.403 267.498 597.419 263.51C597.429 261.598 597.559 259.737 597.808 257.924C598.049 256.163 597.68 254.248 595.77 253.603C593.54 252.852 591.029 252.373 588.236 252.165C582.557 251.738 577.192 251.339 572.138 250.967C569.654 250.782 568.912 252.083 568.266 254.166C564.036 267.863 561.231 281.92 559.852 296.336C559.271 302.357 559.795 308.333 561.424 314.265C562.817 319.354 565.928 322.714 570.756 324.346C574.899 325.743 581.265 325.421 585.629 324.294C587.898 323.711 590.925 322.441 593.209 323.117ZM364.732 382.028C366.863 382.072 368.888 382.077 370.807 382.043C374.955 381.971 374.899 379.509 374.735 376.273C374.677 375.154 374.662 374.072 374.689 373.028C374.972 361.672 375.249 351.304 375.519 341.921C375.614 338.593 375.554 335.143 375.339 331.569C375.145 328.411 373.024 327.893 370.366 327.883C354.09 327.832 337.043 327.651 319.227 327.341C317.403 327.31 315.616 327.049 313.834 327.141C312.464 327.213 311.049 327.207 309.588 327.125C306.745 326.967 303.949 327.044 301.147 326.987C280.487 326.571 259.834 326.154 239.191 325.738C237.241 325.697 235.191 325.706 233.04 325.764C230.648 325.825 230.105 327.852 230.1 329.829C230.062 344.86 230.047 360.203 230.054 375.859C230.054 378.009 229.659 381.721 233.04 381.495C236.517 381.26 239.949 381.132 243.426 381.316C248.707 381.598 254.151 381.838 259.462 381.741C270.484 381.536 278.3 381.569 282.909 381.838C287.949 382.135 293.262 382.231 298.848 382.125C299.524 382.11 300.108 381.736 300.277 381.065C301.183 377.517 305.618 375.802 304.123 371.563C303.781 370.601 304.058 369.859 304.953 369.336C307.186 368.021 307.181 366.449 308.113 364.324C308.814 362.732 310.238 362.287 311.744 361.724C311.935 361.652 312.06 361.517 312.118 361.319C312.316 360.623 312.166 359.995 311.667 359.435C308.359 355.718 305.313 352.099 302.53 348.577C301.369 347.109 300.695 345.411 300.507 343.483C300.282 341.148 300.548 338.716 303.411 338.337C305.975 337.999 308.352 338.691 310.54 340.411C317.316 345.74 322.94 351.781 329.045 358.304C335.109 364.78 340.174 371.338 342.617 379.652C342.863 380.482 343.462 381.68 344.456 381.695C351.814 381.787 358.573 381.898 364.732 382.028ZM311.022 380.671C310.475 380.763 309.943 380.712 309.424 380.518C308.249 380.088 307.152 379.927 306.131 380.036C303.851 380.282 303.892 382.688 304.912 384.152C305.56 385.081 306.149 386.054 306.679 387.071C307.252 388.166 306.843 389.477 305.449 389.385C304.647 389.327 303.891 389.311 303.181 389.339C302.576 389.362 302.23 389.671 302.141 390.265C301.922 391.729 302.076 393.072 302.602 394.294C305.045 399.982 309.726 403.648 315.262 406.341C322.75 409.981 328.789 416.053 333.455 423.112C334.008 423.952 335.017 424.029 335.693 423.333C341.255 417.582 346.289 412.438 350.796 407.902C351.496 407.199 351.534 406.515 350.909 405.849C347.696 402.429 345.475 398.701 344.246 394.663C343.273 391.465 341.972 387.656 340.343 383.236C338.021 376.929 335.198 371.627 331.872 367.33C330.318 365.323 328.159 362.872 325.393 359.978C319.416 353.722 313.91 346.493 306.996 341.481C306.351 341.01 305.687 340.786 305.004 340.81C303.529 340.856 302.494 342.269 303.022 343.723C303.599 345.317 304.33 346.631 305.214 347.665C306.836 349.553 308.548 351.49 310.351 353.476C312.97 356.363 315.582 359.87 318.187 363.997C318.45 364.41 318.658 364.836 318.812 365.277C318.867 365.436 318.887 365.605 318.871 365.773C318.855 365.941 318.803 366.104 318.718 366.25C318.634 366.397 318.519 366.524 318.381 366.622C318.244 366.721 318.087 366.789 317.921 366.823C316.041 367.191 313.239 364.585 311.729 366.347C310.013 368.353 313.014 370.565 314.11 371.947C314.817 372.828 314.064 373.924 313.147 374.092C312.943 374.129 312.734 374.087 312.563 373.975L308.722 371.481C308.466 371.315 308.154 371.255 307.854 371.316C307.554 371.376 307.288 371.551 307.114 371.804C305.465 374.22 308.768 376.325 310.858 377.896C311.821 378.623 312.01 379.456 311.426 380.395C311.334 380.548 311.199 380.64 311.022 380.671ZM599.642 356.84C594.1 356.179 589.475 354.244 584.338 352.206C583.71 351.954 583.181 352.094 582.75 352.626C582.027 353.517 581.501 354.461 581.173 355.457C581.146 355.539 581.136 355.627 581.145 355.713C581.154 355.8 581.181 355.883 581.224 355.959C581.518 356.485 581.96 356.858 582.551 357.08C590.8 360.22 599.198 361.928 607.744 362.205C609.772 362.271 611.693 362.788 613.721 362.609C617.05 362.316 620.097 362.075 622.863 361.887C627.049 361.604 631.527 360.805 636.297 359.491C637.479 359.167 637.902 358.415 637.567 357.234L637.316 356.343C636.989 355.186 636.249 354.783 635.099 355.135C628.731 357.101 622.281 358.032 615.749 357.93C610.447 357.848 605.077 357.485 599.642 356.84ZM512.271 379.801C512.005 379.995 511.734 380.108 511.462 380.313C495.653 392.34 480.07 404.486 464.712 416.749C462.189 418.762 459.544 420.92 456.779 423.22C448.249 430.322 439.213 437.502 429.67 444.758C426.815 446.929 424.71 448.164 423.355 448.465C419.206 449.376 416.2 447.579 412.819 445.28C399.606 436.287 385.789 426.549 371.37 416.068C370.581 415.494 369.762 414.981 368.912 414.527C367.872 413.974 366.156 415.756 365.49 416.421C358.016 423.872 350.791 431.046 343.816 437.944C342.706 439.039 342.677 440.137 343.729 441.236C362.931 461.318 381.91 479.878 400.666 496.916C406.095 501.848 411.727 505.843 417.562 508.901C421.362 510.893 425.465 511.261 429.091 508.64C460.405 486.032 492.42 463.419 525.137 440.801C526.096 440.138 527.23 439.49 528.538 438.855C529.762 438.261 531.037 438.763 531.186 440.186C531.203 440.353 531.185 440.522 531.131 440.68C531.077 440.838 530.989 440.982 530.873 441.103C530.508 441.478 530.137 441.842 529.762 442.193C528.594 443.284 528.102 445.147 528.036 446.698C527.79 452.606 527.713 458.786 527.401 464.786C526.759 477.223 526.033 489.493 525.224 501.596C525.108 503.343 525.018 505.046 524.953 506.705C524.741 512.241 524.248 521.069 523.473 533.188C523.078 539.342 523.129 545.25 522.986 551.24C522.935 553.537 522.735 556.264 522.387 559.421C522.236 560.81 522.861 561.505 524.261 561.505C554.308 561.498 583.94 561.501 613.158 561.515C616.367 561.515 619.833 561.542 623.554 561.597C643.894 561.887 664.2 561.728 684.471 561.121C685.9 561.075 687.35 561.341 688.748 561.259C690.725 561.136 691.083 559.677 691.012 558.034C689.881 532.224 688.695 506.666 687.452 481.358C686.863 469.368 686.561 457.327 686.126 445.403C686.085 444.164 686.064 441.896 687.432 441.313C689.024 440.626 689.813 441.379 690.474 442.726C690.935 443.657 690.884 444.999 690.945 446.017C690.983 446.68 691.447 447.536 692.338 448.587C701.724 459.69 711.385 471.194 721.321 483.098C722.301 484.269 722.371 485.482 721.531 486.738C713.067 499.421 704.772 511.666 696.645 523.471C695.017 525.837 694.344 528.139 694.627 530.378C694.846 532.088 694.907 533.779 694.812 535.451C694.771 536.223 694.971 536.886 695.411 537.443C695.534 537.603 695.669 537.612 695.816 537.468C696.314 536.973 696.744 536.417 697.106 535.799C706.663 519.461 716.084 503.3 725.368 487.317C732.258 475.46 737.928 465.204 742.377 456.548C743.097 455.146 743.45 453.477 743.437 451.541C743.421 449.36 742.325 447.323 741.306 445.444C739.408 441.932 737.422 438.632 735.35 435.543C730.04 427.618 724.61 419.95 719.058 412.54C716.838 409.578 714.738 406.88 712.758 404.446C706.015 396.149 699.218 387.6 692.369 378.797C688.697 374.082 685.163 370.734 680.005 369.126C676.468 368.027 673.359 367.217 670.679 366.695C664.96 365.585 658.049 364.384 649.946 363.09C648.103 362.797 646.546 362.671 645.275 362.712C639.775 362.886 634.566 364.944 629.193 365.876C612.205 368.83 595.242 366.336 578.796 360.218C578.67 360.174 578.534 360.148 578.387 360.142C578.165 360.131 577.945 360.137 577.726 360.157C572.394 360.664 567.135 361.334 561.721 362.333C549.012 364.681 539.846 366.446 534.223 367.626C528.804 368.76 523.756 371.113 519.078 374.686C516.889 376.362 514.621 378.067 512.271 379.801ZM363.544 412.443C363.981 411.815 363.928 411.218 363.385 410.651C361.962 409.156 360 407.523 358.013 406.868C357.841 406.812 357.656 406.817 357.49 406.883C356.531 407.272 355.589 407.924 354.663 408.839C347.469 415.955 341.164 422.582 335.749 428.718C334.228 430.439 334.873 431.857 336.246 433.311C337.427 434.567 338.59 435.787 339.734 436.971C339.794 437.032 339.875 437.067 339.961 437.068C340.046 437.069 340.128 437.036 340.19 436.976C341.695 435.481 343.148 433.942 344.548 432.358C347.874 428.597 353.383 422.92 361.076 415.326C362.056 414.356 362.878 413.395 363.544 412.443ZM694.653 478.701C696.85 479.269 698.771 480.784 699.447 482.955C700.497 486.334 698.336 490.512 694.945 491.853C693.619 492.38 692.569 493.635 692.876 495.135C693.337 497.401 693.566 499.471 693.562 501.345C693.559 505.225 693.648 509.225 693.828 513.345C693.88 514.519 693.864 515.697 693.782 516.877C693.771 517.048 693.812 517.218 693.901 517.364C693.99 517.509 694.122 517.624 694.279 517.691C694.878 517.953 695.452 517.814 695.805 517.277C702.361 507.229 708.89 497.391 715.391 487.762C716.736 485.769 716.669 483.87 715.191 482.064C707.942 473.201 700.478 464.149 692.799 454.91C692.389 454.419 692.002 454.224 691.636 454.326C691.457 454.376 691.3 454.489 691.196 454.644C691.092 454.799 691.046 454.986 691.068 455.171C691.872 462.098 691.928 468.666 691.98 475.532C691.995 477.175 693.096 478.307 694.653 478.701ZM692.615 481.977L692.738 488.894C692.738 488.929 692.752 488.963 692.777 488.988C692.802 489.013 692.835 489.027 692.871 489.027L693.301 489.017C694.156 489.002 694.971 488.636 695.565 487.999C696.16 487.361 696.486 486.505 696.471 485.617L696.461 485.126C696.446 484.238 696.091 483.393 695.476 482.775C694.86 482.158 694.034 481.819 693.178 481.834L692.748 481.839C692.73 481.839 692.712 481.843 692.696 481.85C692.679 481.857 692.664 481.867 692.652 481.88C692.639 481.893 692.63 481.908 692.623 481.925C692.617 481.942 692.614 481.959 692.615 481.977Z" fill="#090909"/>
<path d="M470.499 9.91661C487.124 17.0021 503.595 24.0876 520.574 31.1373C523.718 32.4427 524.149 34.8848 524.292 38.2893C524.487 42.8696 524.599 46.7451 524.63 49.9159C524.756 62.766 524.843 75.1793 524.891 87.1556C524.915 93.207 525.004 99.6594 525.157 106.513C525.209 108.67 524.997 110.337 524.522 111.515C523.853 113.184 522.706 114.523 521.081 115.533C502.868 126.872 485.613 138.229 469.316 149.604C466.535 151.545 464.917 150.132 462.325 148.345C446.991 137.744 430.842 126.925 413.88 115.887C411.232 114.161 409.163 112.554 408.978 109.073C408.753 104.695 409.383 100.185 409.398 95.649C409.419 88.3229 409.844 80.6487 409.885 73.2099C409.953 59.486 409.934 47.1137 409.828 36.093C409.808 33.866 410.976 32.7602 413.055 31.7567C417.699 29.5075 422.259 27.4631 426.735 25.6235C439.471 20.3913 452.212 15.1556 464.958 9.91661C466.843 9.14185 468.69 9.14185 470.499 9.91661ZM486.213 62.6738C486.018 61.5168 485.88 60.3547 485.798 59.1874C485.219 50.9807 481.746 43.629 474.392 39.4156C468.41 35.9906 461.613 37.1169 456.374 41.6785C452.471 45.071 450.023 49.2827 449.029 54.3136C448.34 57.8017 448.109 61.0322 448.338 64.0049C448.344 64.0851 448.319 64.1647 448.269 64.2274C448.219 64.2901 448.146 64.3314 448.067 64.3428C446.373 64.5886 444.579 64.6653 442.684 64.5732C441.286 64.5066 439.882 64.6193 438.499 64.7063C436.311 64.8428 435.187 65.9794 435.129 68.1159C434.95 74.582 434.853 80.8227 435.099 87.7137C435.348 94.7411 435.58 102.122 435.795 109.856C435.819 110.757 436.237 111.279 437.05 111.422C437.873 111.569 438.795 111.641 439.816 111.637C452.917 111.566 466.023 111.54 479.124 111.709C484.717 111.781 490.236 111.764 495.682 111.658C497.183 111.627 498.218 110.414 498.218 108.939C498.197 95.8709 498.412 82.8433 498.863 69.8566C498.89 69.0682 498.813 68.1671 498.633 67.1535C498.259 65.08 496.543 64.3735 494.622 64.2763C492.481 64.1636 490.364 64.0971 488.271 64.0766C487.375 64.0715 486.382 63.6773 486.213 62.6738Z" fill="white"/>
<path d="M486.213 62.6738C486.382 63.6773 487.375 64.0715 488.271 64.0766C490.364 64.0971 492.481 64.1636 494.622 64.2763C496.543 64.3735 498.259 65.08 498.633 67.1535C498.813 68.1671 498.89 69.0682 498.863 69.8566C498.412 82.8432 498.197 95.8709 498.218 108.939C498.218 110.414 497.183 111.627 495.682 111.658C490.236 111.764 484.717 111.781 479.124 111.709C466.023 111.54 452.917 111.566 439.816 111.637C438.795 111.641 437.873 111.569 437.05 111.422C436.237 111.279 435.819 110.757 435.795 109.856C435.58 102.122 435.348 94.7411 435.099 87.7137C434.853 80.8227 434.95 74.582 435.129 68.1159C435.187 65.9794 436.311 64.8428 438.499 64.7063C439.882 64.6193 441.286 64.5066 442.684 64.5732C444.579 64.6653 446.373 64.5886 448.067 64.3428C448.146 64.3314 448.219 64.2901 448.269 64.2274C448.319 64.1647 448.344 64.0851 448.338 64.0049C448.109 61.0322 448.34 57.8017 449.029 54.3136C450.023 49.2827 452.471 45.071 456.374 41.6785C461.613 37.1169 468.41 35.9906 474.392 39.4156C481.746 43.629 485.219 50.9807 485.798 59.1874C485.88 60.3547 486.018 61.5168 486.213 62.6738ZM458.305 46.2349C454.32 50.3715 452.487 56.1003 452.353 61.9264C452.343 62.4281 452.365 62.9332 452.42 63.4418C452.502 64.1585 452.905 64.5322 453.629 64.563C455.063 64.6176 456.502 64.6107 457.946 64.5425C460.707 64.4094 463.437 64.7268 466.218 64.5937C470.172 64.4042 474.192 64.522 478.105 64.4503C478.931 64.4367 479.698 64.2967 480.405 64.0305C480.641 63.9423 480.847 63.7876 480.998 63.5851C481.149 63.3826 481.238 63.1408 481.255 62.8889C481.695 55.9109 479.462 48.6001 473.782 44.5608C468.738 40.972 462.622 41.7501 458.305 46.2349ZM439.36 69.0835C439.295 69.2576 439.262 69.4368 439.262 69.6211C439.368 78.4507 439.408 85.9286 439.38 92.0551C439.356 96.6832 439.179 101.158 438.848 105.479C438.728 107.035 439.51 107.784 441.193 107.726C448.64 107.475 455.882 107.229 463.099 107.224C472.458 107.221 482.252 107.243 492.481 107.291C492.846 107.293 493.2 107.167 493.483 106.935C493.765 106.703 493.958 106.38 494.028 106.021C494.233 104.95 494.337 103.868 494.341 102.775C494.358 97.062 494.539 91.753 494.883 86.8485C495.273 81.3142 495.268 76.169 494.945 70.7679C494.849 69.1945 494.062 68.377 492.584 68.3156C490.794 68.2406 489.009 68.2013 487.242 68.1979C473.834 68.1876 458.839 68.1825 442.259 68.1825C441.473 68.1825 440.717 68.2695 439.99 68.4436C439.833 68.4811 439.701 68.563 439.595 68.6893C439.496 68.8054 439.418 68.9368 439.36 69.0835Z" fill="#090909"/>
<path d="M452.353 61.9264C452.487 56.1003 454.32 50.3715 458.305 46.2349C462.622 41.7501 468.738 40.972 473.782 44.5608C479.462 48.6001 481.695 55.9109 481.255 62.8889C481.238 63.1408 481.149 63.3826 480.998 63.5851C480.847 63.7876 480.641 63.9423 480.405 64.0305C479.698 64.2967 478.931 64.4367 478.105 64.4503C474.192 64.522 470.172 64.4043 466.218 64.5937C463.437 64.7268 460.707 64.4094 457.946 64.5425C456.502 64.6107 455.063 64.6176 453.629 64.563C452.905 64.5322 452.502 64.1585 452.42 63.4418C452.365 62.9332 452.343 62.4281 452.353 61.9264Z" fill="white"/>
<path d="M183.713 72.8874C185.789 72.8874 187.472 71.205 187.472 69.1296C187.472 67.0543 185.789 65.3718 183.713 65.3718C181.637 65.3718 179.954 67.0543 179.954 69.1296C179.954 71.205 181.637 72.8874 183.713 72.8874Z" fill="white"/>
<path d="M245.536 72.7836C247.424 71.5948 248.031 69.1648 246.892 67.356C245.752 65.5472 243.298 65.0446 241.409 66.2334C239.521 67.4221 238.914 69.8521 240.053 71.6609C241.193 73.4697 243.647 73.9723 245.536 72.7836Z" fill="white"/>
<path d="M214.59 73.1307C216.49 72.2407 217.346 70.058 216.502 68.2554C215.657 66.4529 213.431 65.713 211.531 66.603C209.63 67.493 208.774 69.6757 209.619 71.4783C210.464 73.2808 212.689 74.0206 214.59 73.1307Z" fill="white"/>
<path d="M439.36 69.0835C439.418 68.9368 439.496 68.8054 439.595 68.6893C439.701 68.5631 439.833 68.4811 439.99 68.4436C440.717 68.2695 441.473 68.1825 442.259 68.1825C458.839 68.1825 473.834 68.1876 487.242 68.1979C489.009 68.2013 490.794 68.2406 492.584 68.3156C494.062 68.377 494.849 69.1945 494.945 70.7679C495.268 76.169 495.273 81.3142 494.884 86.8485C494.539 91.753 494.358 97.062 494.341 102.775C494.337 103.868 494.233 104.95 494.028 106.021C493.958 106.38 493.765 106.703 493.483 106.935C493.2 107.167 492.846 107.293 492.481 107.291C482.252 107.243 472.458 107.221 463.099 107.224C455.882 107.229 448.64 107.475 441.193 107.726C439.51 107.784 438.728 107.035 438.848 105.479C439.179 101.158 439.356 96.6832 439.38 92.0551C439.408 85.9287 439.368 78.4507 439.262 69.6211C439.262 69.4368 439.295 69.2576 439.36 69.0835ZM463.017 85.5481C464.727 87.1198 464.86 88.8758 464.753 91.2257C464.666 93.0688 465.383 95.9408 467.831 95.6746C468.707 95.5773 469.193 94.7121 469.316 93.9237C469.818 90.7445 470.392 87.1608 471.933 84.4218C473.434 81.7545 473.234 78.9131 470.125 77.5769C467.032 76.2509 463.626 77.0701 462.192 80.3722C461.398 82.1999 461.511 84.1709 463.017 85.5481Z" fill="#165EF0"/>
<path d="M707.186 560.558C703.375 560.483 700.468 560.546 698.463 560.747C696.739 560.921 695.862 560.223 695.831 558.653C695.759 555.168 695.648 551.687 695.498 548.209C695.416 546.284 696.384 544.38 697.49 542.813C700.119 539.083 702.568 535.327 704.835 531.545C719.851 506.531 733.624 482.518 746.151 459.507C747.759 456.552 748.343 453.553 747.903 450.512C747.647 448.751 746.634 446.26 744.866 443.038C736.842 428.437 727.751 414.819 717.593 402.184C709.804 392.501 702.441 383.258 695.503 374.456C692.396 370.514 688.656 367.596 684.282 365.701C681.915 364.678 678.769 363.768 674.842 362.973C663.899 360.758 653.482 359.036 643.59 357.807C642.323 357.65 641.548 356.986 641.265 355.816C640.282 351.781 639.807 347.177 639.841 342.003C639.879 336.747 639.985 331.016 640.159 324.811C640.183 323.962 640.57 323.33 641.321 322.917C645.968 320.357 649.762 316.883 652.702 312.494C658.107 304.418 662.986 295.836 667.339 286.747C668.985 283.314 670.469 279.735 671.79 276.012C675.462 265.665 676.753 255.579 673.306 245.238C671.585 240.081 668.435 236.697 663.857 235.086C662.849 234.734 662.445 234.019 662.643 232.941C665.163 219.374 650.166 212.631 639.472 210.276C632.411 208.723 625.27 208.049 618.049 208.254C608.324 208.531 599.051 209.669 590.228 211.669C581.115 213.741 572.936 217.096 565.69 221.734C560.487 225.072 556.046 229.854 554.131 235.664C551.749 242.898 556.871 247.409 563.155 249.323C564.2 249.641 564.548 250.376 564.2 251.53C560.28 264.534 557.443 277.786 555.688 291.288C554.709 298.804 554.177 306.161 555.764 312.842C558.581 324.704 567.114 330.31 579.15 329.404C581.393 329.236 583.461 329.105 585.352 329.009C585.486 329.003 585.619 329.027 585.742 329.081C585.864 329.134 585.973 329.216 586.058 329.319C586.144 329.422 586.204 329.543 586.234 329.673C586.265 329.804 586.264 329.939 586.233 330.069C585.987 331.1 585.702 332.1 585.378 333.069C583.363 339.093 581.099 345.18 578.586 351.331C577.029 355.143 574.428 356.978 570.781 356.834C569.767 356.797 568.784 356.853 567.831 357.003C557.997 358.546 548.389 360.06 539.006 361.544C531.682 362.701 524.947 364.667 519.047 369.157C505.455 379.509 491.785 389.303 478.545 399.818C465.345 410.303 453.057 420.235 441.68 429.614C441.383 429.86 441.057 430.044 440.702 430.167C440.552 430.219 440.393 430.235 440.236 430.215C440.079 430.195 439.929 430.139 439.798 430.051C439.667 429.963 439.557 429.846 439.478 429.709C439.4 429.572 439.354 429.419 439.344 429.261C439.273 428.104 439.549 427.003 439.549 425.846C439.56 390.692 439.64 356.211 439.79 322.405C439.848 309.483 439.851 295.746 439.8 281.193C439.684 248.673 439.88 214.116 440.389 177.521C440.558 165.163 440.215 152.696 439.79 140.537C439.783 140.326 439.834 140.116 439.939 139.931C440.043 139.747 440.197 139.595 440.383 139.493C440.568 139.39 440.779 139.342 440.991 139.352C441.202 139.362 441.407 139.43 441.583 139.549C449.023 144.601 456.152 149.514 462.971 154.289C465.132 155.799 466.576 157.069 469.173 155.241C487.042 142.657 504.947 130.575 523.385 118.825C527.078 116.47 529.07 114.402 528.953 109.953C528.691 100.124 528.292 90.3042 528.763 80.4797L529.219 80.449C529.397 80.4353 529.506 80.3398 529.547 80.1623C529.605 79.92 529.752 79.7681 529.987 79.7067C531.508 79.3227 532.845 78.7237 534.346 78.4012C538.197 77.5752 542.023 76.5871 545.823 75.4369C549.147 74.4335 552.543 73.7884 555.98 73.1946C556.86 73.0461 557.649 72.7082 558.556 72.7133C561.096 72.7236 563.355 71.8788 565.854 71.5512C571.232 70.8396 576.645 70.0409 581.9 69.7337C587.636 69.401 593.198 68.9811 598.837 68.93C606.704 68.8549 613.453 68.9999 619.083 69.3651C621.299 69.5119 623.898 69.819 626.878 70.2866C629.21 70.6518 631.252 71.1416 633.004 71.756C635.616 72.6724 638.32 73.1792 640.917 74.07C647.677 76.3977 653.54 78.6213 658.504 80.7408C663.923 83.0549 669.581 86.0976 675.478 89.869C678.827 92.0124 681.933 94.1558 684.794 96.2992C687.474 98.3095 690.252 100.598 693.127 103.165C695.274 105.083 697.565 107.431 700 110.209C704.736 115.605 708.644 120.255 711.723 124.16C713.321 126.184 714.827 128.027 716.241 129.689C718.448 132.274 720.246 135.116 722.351 137.758C728.217 145.116 733.548 152.802 738.346 160.816C741.275 165.71 744.167 170.596 747.022 175.473C748.657 178.265 750.201 181.161 751.652 184.161C753.68 188.356 755.72 192.418 757.772 196.346C758.622 197.969 759.216 199.745 760.02 201.404C761.704 204.865 763.247 208.326 764.65 211.787C765.565 214.046 766.506 216.369 767.472 218.754C772.014 229.97 774.738 237.048 775.647 239.99C777.006 244.403 778.426 248.794 779.908 253.163C781.885 258.989 783.524 264.667 784.825 270.196C785.178 271.696 785.352 273.175 785.798 274.655C786.289 276.303 786.713 277.971 787.068 279.657C788.481 286.346 789.542 292.282 790.248 297.463C790.614 300.145 790.962 302.437 791.293 304.338C791.618 306.222 791.843 308.062 791.969 309.857C792.225 313.518 792.855 317.188 792.876 320.849C792.891 323.163 793.316 325.497 793.444 327.76C793.798 333.981 794.228 340.651 794.202 346.979C794.127 362.836 793.919 374.043 793.577 380.599C793.029 390.987 791.073 401.784 789.229 412.341C788.635 415.747 787.974 419.09 787.247 422.37C785.441 430.527 783.754 437.314 782.187 442.731C780.732 447.758 779.293 452.529 777.869 457.045C776.574 461.161 774.878 464.99 773.588 468.943C773.089 470.482 772.493 472.054 771.8 473.658C770.223 477.318 768.947 481.214 767.39 485.018C764.673 491.66 761.629 498.15 758.259 504.488C757.248 506.386 756.196 508.181 755.104 509.874C753.562 512.254 752.236 514.681 750.561 517.036C747.882 520.789 745.501 524.521 742.504 528.176C740.428 530.716 738.351 533.301 736.271 535.932C735.047 537.484 733.721 539.03 732.21 540.381C728.389 543.784 725.057 546.569 722.213 548.736C717.651 552.218 712.657 555.801 707.232 559.488C707.164 559.533 707.107 559.592 707.064 559.662C707.02 559.732 706.992 559.81 706.981 559.892C706.947 560.128 707.015 560.349 707.186 560.558Z" fill="#165EF0" fill-opacity="0.25"/>
<path d="M464.753 91.2257C464.86 88.8758 464.727 87.1198 463.017 85.5481C461.511 84.1709 461.398 82.1999 462.192 80.3722C463.626 77.0701 467.032 76.2509 470.125 77.5769C473.234 78.9131 473.434 81.7545 471.933 84.4218C470.392 87.1608 469.818 90.7445 469.316 93.9237C469.193 94.7121 468.707 95.5773 467.831 95.6746C465.383 95.9408 464.666 93.0687 464.753 91.2257Z" fill="#090909"/>
<path d="M228.599 414.281C228.866 414.964 229.362 415.308 230.09 415.315C235.78 415.387 241.813 415.576 247.278 415.581C266.945 415.588 286.61 415.592 306.274 415.592C310.023 415.592 315.14 415.32 319.488 415.653C323.872 415.986 326.827 419.104 329.311 422.6C330.289 423.978 332.845 426.568 331.309 428.35C330.592 429.179 329.68 430.208 330.018 431.386C330.291 432.341 330.894 433.314 331.826 434.304C333.82 436.423 335.773 438.478 337.685 440.468C337.822 440.611 337.909 440.795 337.936 440.995C338.015 441.562 337.816 441.857 337.342 441.881C334.259 442.029 331.088 441.83 327.949 441.799C302.361 441.55 285.958 441.369 278.74 441.256C262.668 441 246.665 440.944 230.73 441.087C229.746 441.097 228.21 441.686 228.43 443.012C228.475 443.282 228.604 443.531 228.799 443.724C228.994 443.917 229.245 444.044 229.516 444.087C230.971 444.323 232.485 444.452 234.059 444.476C268.056 444.992 303.052 445.403 339.047 445.71C341.441 445.731 343.449 446.581 345.07 448.26C352.329 455.796 359.377 462.914 366.213 469.613C366.513 469.907 366.774 470.209 366.996 470.52C367.073 470.626 367.119 470.751 367.128 470.882C367.137 471.013 367.109 471.144 367.047 471.259C366.985 471.375 366.891 471.471 366.777 471.535C366.663 471.6 366.533 471.631 366.402 471.625C355.281 471.185 343.947 470.921 332.399 470.832C319.206 470.735 304.364 470.868 289.629 470.832C257.478 470.753 224.7 470.677 191.293 470.602C187.681 470.595 184.058 470.595 180.425 470.602C174.202 470.612 170.802 467.264 170.781 461.151C170.651 420.624 170.629 379.922 170.714 339.044C170.721 335.737 170.745 332.324 170.786 328.805C171.196 292.565 171.418 254.381 171.452 214.254C171.452 212.718 171.457 211.054 171.467 209.263C171.556 196.423 171.609 184.093 171.626 172.274C171.641 159.357 171.703 146.932 171.693 135.157C171.693 134.044 171.688 132.894 171.677 131.706C171.544 117.358 171.524 103.323 171.616 89.6028C171.619 88.7973 171.746 88.0226 171.995 87.2785C172.05 87.1147 172.155 87.0003 172.312 86.9355C172.879 86.7068 173.49 86.5771 174.146 86.5464C180.377 86.2392 187.414 86.1437 195.257 86.2597C209.035 86.4679 220.901 86.5311 230.858 86.4491C237.758 86.3945 243.86 86.4014 249.163 86.4696C252.621 86.514 256.039 86.5311 259.416 86.5208C290.604 86.4184 321.246 86.5635 351.344 86.956C368.102 87.1778 385.757 87.3024 404.307 87.3297C404.539 87.3303 404.768 87.3772 404.981 87.4676C405.194 87.558 405.387 87.69 405.548 87.856C405.71 88.022 405.836 88.2186 405.92 88.4342C406.004 88.6498 406.045 88.88 406.038 89.1113C405.905 94.0108 406.269 98.9409 406.131 103.717C406.062 106.052 406.009 108.448 405.972 110.905C405.931 113.578 407.426 115.953 409.598 117.433C418.073 123.208 425.917 128.592 433.132 133.585C434.96 134.85 435.365 136.442 435.36 138.653C435.344 145.15 435.257 151.903 435.242 158.395C435.17 182.982 435.114 207.447 435.073 231.789C434.988 281.531 434.868 310.84 434.714 319.717C434.189 349.623 434.04 377.697 434.269 403.94C434.354 413.872 434.301 423.389 434.11 432.491C434.054 435.102 432.364 437.411 430.044 438.87C428 440.161 426.177 442.116 424.061 443.068C420.592 444.628 417.381 444.282 414.428 442.029C409.593 438.34 404.826 434.794 400.128 431.391C388.686 423.1 376.965 414.672 364.963 406.105C363.181 404.832 361.313 403.626 359.36 402.486C357.67 401.498 356.415 402.178 355.237 403.453C355.032 403.675 354.751 403.81 354.45 403.83C354.149 403.851 353.852 403.757 353.618 403.566C348.359 399.235 346.499 392.881 344.907 386.364C344.883 386.268 344.88 386.168 344.898 386.07C344.916 385.973 344.956 385.88 345.013 385.799C345.07 385.717 345.144 385.649 345.23 385.598C345.316 385.547 345.412 385.515 345.511 385.504C346.846 385.361 348.203 385.289 349.583 385.289C356.268 385.282 363.174 385.325 370.3 385.417C373.562 385.458 376.589 385.023 377.869 381.552C378.755 379.161 379.155 376.596 379.15 373.97C379.112 360.399 379.117 347.087 379.165 334.032C379.186 329.562 378.423 325.39 374.156 323.967C373.125 323.622 371.326 323.434 368.758 323.404C358.938 323.294 349.292 323.182 339.821 323.066C316.558 322.779 293.297 322.496 270.038 322.216C259.467 322.09 248.669 322.014 237.644 321.991C235.612 321.987 233.757 322.178 232.077 322.564C227.298 323.665 226.771 326.951 226.73 331.451C226.61 345.851 226.535 361.058 226.504 377.072C226.498 379.031 226.972 380.789 227.928 382.345C229.787 385.376 234.658 384.961 237.644 385.018C258.844 385.414 279.449 385.717 299.457 385.929C299.708 385.932 299.953 386.009 300.164 386.149C300.259 386.217 300.294 386.306 300.266 386.415C300.089 387.159 299.831 387.879 299.493 388.576C296.676 394.376 303.196 402.48 307.339 405.818C309.217 407.33 311.604 408.911 314.499 410.559C314.875 410.778 315.165 411.064 315.37 411.419C315.415 411.499 315.439 411.589 315.439 411.681C315.439 411.772 315.415 411.862 315.37 411.942C315.324 412.022 315.259 412.088 315.18 412.135C315.101 412.181 315.011 412.206 314.919 412.208C288.497 412.469 261.624 412.351 234.146 412.402C232.825 412.407 231.631 412.254 230.356 412.162C229.277 412.083 228.666 412.581 228.522 413.657C228.492 413.872 228.517 414.08 228.599 414.281ZM408.328 147.346C406.643 143.681 401.163 142.247 397.629 142.334C395.799 142.379 393.985 142.377 392.19 142.329C373.229 141.814 353.554 141.648 333.163 141.833C332.265 141.843 331.368 141.851 330.474 141.858C302.37 142.073 270.231 142.155 234.059 142.104C224.758 142.089 215.216 142.309 206.151 142.462C204.468 142.49 202.894 142.793 201.429 143.374C198.238 144.633 197.327 148.242 197.291 151.314C197.144 165.533 197.152 180.774 197.316 197.037C197.352 200.856 199.134 204.317 202.745 205.74C203.988 206.232 206.009 206.474 208.809 206.467C236.654 206.409 264.403 206.609 292.056 207.066C295.426 207.121 298.844 207.152 302.31 207.158C317.146 207.182 331.826 207.131 346.351 207.005C363.57 206.856 381.926 207.23 398.592 207.03C404.538 206.959 408.046 203.723 408.44 197.872C408.727 193.697 408.874 190.073 408.881 186.998C408.915 175.7 408.946 163.937 408.973 151.708C408.98 149.749 408.765 148.295 408.328 147.346ZM408.901 289.041C409.542 286.358 409.229 283.839 409.255 281.193C409.357 270.619 409.53 260.725 409.772 251.509C409.875 247.613 409.839 243.984 409.316 240.221C408.466 234.108 404.456 231.41 398.464 231.441C334.612 231.743 270.791 232.214 205.89 232.92C204.183 232.937 202.667 233.162 201.342 233.596C197.695 234.794 196.277 238.838 196.271 242.417C196.258 253.793 196.372 266.346 196.615 280.077C196.659 282.524 196.826 285.025 197.117 287.582C197.523 291.176 199.293 293.509 202.428 294.58C207.001 296.147 211.268 296.203 216.108 296.239C248.746 296.461 281.385 296.683 314.023 296.905C345.453 297.116 371.636 297.178 392.574 297.089C395.428 297.079 398.049 296.874 400.435 296.475C404.707 295.758 407.903 293.208 408.901 289.041Z" fill="white"/>
<path d="M121.63 128.312C120.792 130.664 121.871 133.196 124.04 133.968C126.209 134.74 128.647 133.459 129.484 131.107C130.322 128.755 129.243 126.223 127.074 125.451C124.905 124.679 122.467 125.96 121.63 128.312Z" fill="white"/>
<path d="M154.884 133.631C156.837 132.354 157.466 129.86 156.288 128.062C155.111 126.264 152.574 125.842 150.622 127.119C148.669 128.397 148.04 130.89 149.217 132.688C150.394 134.486 152.932 134.908 154.884 133.631Z" fill="white"/>
<path d="M397.629 142.334C401.163 142.247 406.643 143.681 408.328 147.346C408.765 148.295 408.98 149.749 408.973 151.708C408.946 163.937 408.915 175.7 408.881 186.998C408.874 190.073 408.727 193.697 408.44 197.872C408.046 203.723 404.538 206.959 398.592 207.031C381.926 207.23 363.57 206.856 346.351 207.005C331.826 207.131 317.146 207.182 302.31 207.158C298.844 207.152 295.426 207.121 292.056 207.066C264.403 206.609 236.654 206.409 208.809 206.467C206.009 206.474 203.988 206.232 202.745 205.74C199.134 204.317 197.352 200.856 197.316 197.037C197.152 180.774 197.144 165.533 197.291 151.314C197.326 148.242 198.238 144.633 201.429 143.374C202.894 142.793 204.468 142.49 206.151 142.462C215.216 142.309 224.758 142.089 234.059 142.104C270.231 142.155 302.37 142.073 330.474 141.858C331.368 141.851 332.265 141.843 333.163 141.833C353.554 141.648 373.229 141.814 392.189 142.329C393.985 142.377 395.799 142.379 397.629 142.334ZM203.216 146.169C201.444 146.65 200.978 149.046 200.983 150.562C201.014 160.715 200.987 169.796 200.901 177.803C200.83 184.755 201.029 191.431 201.045 198.256C201.055 201.957 204.656 201.829 207.298 201.824C236.881 201.807 262.873 201.706 285.275 201.522C292.599 201.46 300.082 201.102 307.549 201.363C315.734 201.653 323.421 201.797 330.612 201.793C349.419 201.78 367.276 201.754 384.184 201.716C386.848 201.71 389.385 201.677 391.795 201.619C395.52 201.527 398.086 201.517 399.493 201.588C402.802 201.756 404.459 200.177 404.466 196.853C404.49 182.682 404.493 167.809 404.476 152.236C404.476 149.461 404.246 147.096 400.86 146.788C395.793 146.324 390.17 146.094 383.99 146.097C337.731 146.101 291.635 146.131 245.7 146.189C233.484 146.207 220.427 146.056 206.53 145.739C205.465 145.715 204.36 145.858 203.216 146.169Z" fill="#090909"/>
<path d="M200.983 150.562C200.978 149.046 201.444 146.65 203.216 146.169C204.36 145.858 205.465 145.715 206.53 145.739C220.427 146.056 233.484 146.207 245.7 146.189C291.635 146.131 337.731 146.101 383.99 146.097C390.17 146.094 395.793 146.324 400.86 146.788C404.246 147.096 404.476 149.461 404.476 152.236C404.493 167.809 404.49 182.682 404.466 196.853C404.459 200.177 402.802 201.756 399.493 201.588C398.086 201.517 395.52 201.527 391.795 201.619C389.385 201.677 386.848 201.71 384.184 201.716C367.276 201.754 349.419 201.78 330.612 201.793C323.421 201.797 315.734 201.653 307.549 201.363C300.082 201.102 292.599 201.46 285.275 201.522C262.873 201.706 236.881 201.807 207.298 201.824C204.656 201.829 201.055 201.957 201.045 198.256C201.029 191.431 200.83 184.755 200.901 177.803C200.987 169.796 201.014 160.715 200.983 150.562Z" fill="#165EF0"/>
<path d="M167.457 468.037C168.942 473.136 172.845 474.405 177.593 474.472C213.408 474.969 249.255 475.056 285.408 474.994C286.341 474.994 287.211 474.856 288.138 474.856C313.316 474.846 338.994 474.873 365.173 474.938C367.283 474.943 369.967 474.759 371.744 475.424C374.148 476.322 375.368 478.138 375.406 480.871C375.624 495.916 375.715 509.811 375.677 522.555C375.674 523.712 375.433 525 374.955 526.42C373.613 530.414 369.926 531.642 366.069 531.642C353.357 531.627 340.625 531.75 327.913 531.489C312.439 531.164 299.464 531.009 288.988 531.023C265.456 531.053 233.19 531.013 192.19 530.9C191.063 530.896 189.953 530.893 188.86 530.89C166.489 530.791 143.076 530.692 118.622 530.593C115.276 530.579 113.007 529.296 111.816 526.743C111.225 525.48 110.943 523.186 110.971 519.862C111.039 510.422 111.112 501.471 111.191 493.01C111.225 489.365 111.242 485.952 111.242 482.771C111.249 435.009 111.256 386.586 111.262 337.503C111.268 320.275 111.478 303.033 111.606 285.8C111.944 239.983 112.041 194.163 111.898 148.34C111.894 147.121 112.623 146.532 114.085 146.573C130.184 146.997 146.317 147.036 162.484 146.691C163.481 146.671 164.558 146.814 165.716 147.121C165.79 147.142 165.859 147.18 165.917 147.232C165.975 147.285 166.02 147.35 166.049 147.423C166.277 148.007 166.387 148.695 166.376 149.486C166.151 166.565 166.066 186.576 166.12 209.519C166.223 255.625 166.168 304.389 165.956 355.81C165.946 358.148 165.945 360.365 165.951 362.461C166.013 393.608 165.736 424.72 165.885 455.898C165.905 460.475 166.429 464.521 167.457 468.037Z" fill="white"/>
<path d="M408.901 289.041C407.903 293.208 404.707 295.758 400.435 296.475C398.049 296.874 395.428 297.079 392.574 297.089C371.636 297.178 345.453 297.116 314.023 296.905C281.385 296.683 248.746 296.461 216.108 296.239C211.268 296.203 207.001 296.147 202.428 294.58C199.293 293.509 197.523 291.176 197.117 287.582C196.826 285.025 196.659 282.524 196.615 280.077C196.372 266.346 196.258 253.793 196.271 242.417C196.277 238.838 197.695 234.794 201.342 233.596C202.667 233.162 204.183 232.937 205.89 232.92C270.791 232.214 334.612 231.743 398.464 231.441C404.456 231.41 408.466 234.108 409.316 240.221C409.839 243.984 409.875 247.613 409.772 251.509C409.53 260.725 409.357 270.619 409.255 281.193C409.229 283.839 409.542 286.358 408.901 289.041ZM398.981 291.355C402.428 291.283 404.312 289.732 404.466 286.194C405.065 272.29 405.326 258.068 405.147 243.943C405.091 239.76 404.63 236.709 399.851 236.386C396.609 236.166 393.731 236.683 390.699 236.739C383.078 236.883 376.36 236.961 370.545 236.975C319.192 237.077 268.809 237.081 219.396 236.985C214.515 236.975 209.972 236.852 204.886 237.128C201.362 237.323 200.338 239.888 200.359 242.924C200.384 247.05 200.502 251.294 200.425 255.37C200.265 263.987 200.362 272.523 200.717 280.978C200.778 282.5 200.905 284.217 201.096 286.128C201.49 290.121 203.575 291.273 207.298 291.355C209.63 291.41 212.09 291.44 214.679 291.447C266.51 291.591 323.035 291.62 384.256 291.534C388.483 291.527 393.391 291.468 398.981 291.355Z" fill="#090909"/>
<path d="M404.466 286.194C404.312 289.732 402.428 291.283 398.981 291.355C393.391 291.468 388.483 291.527 384.256 291.534C323.035 291.62 266.51 291.591 214.679 291.447C212.09 291.44 209.63 291.41 207.298 291.355C203.575 291.273 201.49 290.121 201.096 286.128C200.905 284.217 200.778 282.5 200.717 280.978C200.362 272.524 200.265 263.987 200.425 255.37C200.502 251.294 200.384 247.05 200.359 242.924C200.338 239.888 201.362 237.323 204.886 237.128C209.972 236.852 214.515 236.975 219.396 236.985C268.809 237.081 319.192 237.077 370.545 236.975C376.36 236.961 383.078 236.883 390.699 236.739C393.731 236.683 396.609 236.166 399.851 236.386C404.63 236.709 405.091 239.76 405.147 243.943C405.326 258.068 405.065 272.29 404.466 286.194ZM226.218 269.858C227.814 270.238 229.505 269.928 230.92 268.995C232.335 268.063 233.358 266.585 233.762 264.887C234.167 263.188 233.921 261.408 233.079 259.938C232.237 258.468 230.867 257.429 229.27 257.049C227.674 256.669 225.982 256.979 224.568 257.911C223.153 258.844 222.13 260.322 221.725 262.02C221.321 263.719 221.566 265.499 222.409 266.969C223.251 268.438 224.621 269.478 226.218 269.858ZM263.519 262.798C263.519 261.234 262.897 259.734 261.79 258.628C260.684 257.522 259.183 256.9 257.618 256.9C256.054 256.9 254.553 257.522 253.446 258.628C252.34 259.734 251.718 261.234 251.718 262.798C251.718 264.362 252.34 265.862 253.446 266.968C254.553 268.074 256.054 268.696 257.618 268.696C259.183 268.696 260.684 268.074 261.79 266.968C262.897 265.862 263.519 264.362 263.519 262.798ZM284.917 267.307C285.522 267.593 286.181 267.751 286.856 267.772C287.53 267.793 288.207 267.677 288.848 267.43C289.489 267.182 290.081 266.809 290.591 266.331C291.1 265.853 291.517 265.28 291.818 264.644C292.119 264.009 292.297 263.323 292.343 262.626C292.389 261.929 292.302 261.235 292.086 260.583C291.87 259.931 291.531 259.334 291.086 258.826C290.642 258.319 290.101 257.91 289.496 257.624C288.89 257.338 288.231 257.18 287.556 257.158C286.882 257.137 286.205 257.254 285.564 257.501C284.923 257.748 284.331 258.121 283.821 258.599C283.312 259.077 282.895 259.65 282.594 260.286C282.294 260.922 282.115 261.608 282.069 262.305C282.023 263.002 282.11 263.696 282.326 264.348C282.542 265 282.882 265.597 283.326 266.104C283.771 266.612 284.311 267.021 284.917 267.307ZM318.061 267.851C318.707 267.86 319.348 267.731 319.948 267.472C320.549 267.213 321.096 266.829 321.56 266.341C322.023 265.854 322.393 265.272 322.649 264.631C322.905 263.989 323.042 263.299 323.052 262.6C323.072 261.19 322.573 259.83 321.665 258.819C320.757 257.809 319.514 257.231 318.21 257.213C317.564 257.204 316.923 257.333 316.323 257.592C315.723 257.851 315.175 258.235 314.712 258.722C314.248 259.21 313.878 259.791 313.622 260.433C313.366 261.075 313.229 261.765 313.219 262.463C313.2 263.874 313.699 265.234 314.607 266.244C315.515 267.255 316.758 267.832 318.061 267.851ZM351.299 259.534C350.5 258.575 349.321 258 348.021 257.934C346.721 257.868 345.407 258.318 344.367 259.183C343.328 260.049 342.649 261.26 342.479 262.55C342.309 263.84 342.662 265.103 343.461 266.062C344.26 267.021 345.439 267.596 346.739 267.662C348.039 267.728 349.354 267.278 350.393 266.413C351.433 265.547 352.112 264.336 352.282 263.046C352.452 261.756 352.098 260.493 351.299 259.534ZM377.979 268.125C379.124 268.059 380.193 267.505 380.952 266.585C381.711 265.665 382.097 264.455 382.026 263.22C381.991 262.609 381.844 262.009 381.595 261.457C381.345 260.905 380.998 260.41 380.572 260C380.147 259.591 379.651 259.276 379.114 259.072C378.577 258.868 378.009 258.78 377.442 258.812C376.298 258.878 375.228 259.432 374.469 260.352C373.71 261.272 373.324 262.482 373.395 263.717C373.43 264.329 373.577 264.928 373.826 265.48C374.076 266.033 374.423 266.528 374.849 266.937C375.275 267.346 375.77 267.662 376.307 267.866C376.844 268.069 377.412 268.158 377.979 268.125Z" fill="white"/>
<path d="M593.209 323.117C590.924 322.441 587.898 323.711 585.629 324.294C581.265 325.421 574.899 325.743 570.755 324.346C565.927 322.714 562.817 319.354 561.424 314.265C559.795 308.333 559.271 302.357 559.851 296.336C561.231 281.92 564.036 267.863 568.266 254.166C568.912 252.083 569.654 250.782 572.138 250.967C577.192 251.339 582.557 251.738 588.236 252.165C591.029 252.373 593.54 252.852 595.77 253.603C597.68 254.248 598.049 256.163 597.808 257.924C597.559 259.737 597.429 261.598 597.419 263.51C597.403 267.498 594.182 267.134 592.113 269.254C590.842 270.551 590.055 272.112 589.752 273.938C589.49 275.489 591.017 276.483 592.328 275.541C594.182 274.21 599.677 268.936 601.321 273.457C602.137 275.693 602.17 277.921 601.419 280.143C599.749 285.063 596.502 288.944 593.414 292.947C592.601 293.998 592.756 294.893 593.88 295.63C594.878 296.285 596.302 295.077 597.122 294.514C597.233 294.438 597.363 294.391 597.497 294.379C597.632 294.367 597.768 294.389 597.892 294.444C598.015 294.499 598.123 294.584 598.204 294.692C598.285 294.8 598.338 294.928 598.356 295.062C598.817 298.372 599.273 301.813 599.723 305.383C600.584 312.181 603.216 318.658 608.568 322.999C613.024 326.617 618.219 328.272 624.154 327.965C626.042 327.866 628.026 327.675 630.105 327.392C630.795 327.3 631.442 327.154 632.046 326.957C633.198 326.578 635.442 325.431 636.067 327.248C636.241 327.753 636.266 328.311 636.143 328.922C635.635 331.489 635.447 334.373 635.58 337.575C635.74 341.322 635.904 344.986 636.072 348.566C636.154 350.266 634.802 350.834 633.465 351.336C631.273 352.155 629.422 352.66 627.913 352.851C623.857 353.367 619.618 353.568 615.196 353.455C608.367 353.281 602.627 352.846 597.977 352.15C593.75 351.519 589.757 350.271 585.997 348.408C585.144 347.984 584.874 347.319 585.188 346.411C587.186 340.595 588.999 335.143 589.992 328.892C590.197 327.586 592.077 326.526 593.163 325.927C594.192 325.359 594.586 323.521 593.209 323.117ZM572.023 274.17C572.907 274.493 573.891 274.431 574.758 273.997C575.626 273.563 576.306 272.793 576.649 271.855C576.992 270.918 576.97 269.891 576.588 269C576.205 268.108 575.494 267.426 574.61 267.102C573.726 266.779 572.742 266.841 571.874 267.275C571.006 267.709 570.326 268.48 569.983 269.417C569.64 270.354 569.662 271.381 570.045 272.273C570.427 273.164 571.139 273.846 572.023 274.17ZM564.568 305.495C564.548 308.383 567.104 310.881 569.536 312.222C571.609 313.366 573.656 313.434 575.677 312.427C576.599 311.966 576.847 311.272 576.42 310.344C576.324 310.142 576.171 310.011 575.959 309.949C572.415 308.92 569.634 307.948 567.595 304.671C566.679 303.202 564.584 303.591 564.568 305.495Z" fill="white"/>
<path d="M221.725 262.02C220.882 265.557 222.894 269.066 226.218 269.858C229.541 270.649 232.919 268.424 233.762 264.887C234.605 261.349 232.594 257.84 229.27 257.049C225.946 256.257 222.568 258.483 221.725 262.02Z" fill="#090909"/>
<path d="M257.618 268.696C260.877 268.696 263.519 266.055 263.519 262.798C263.519 259.541 260.877 256.9 257.618 256.9C254.36 256.9 251.718 259.541 251.718 262.798C251.718 266.055 254.36 268.696 257.618 268.696Z" fill="#090909"/>
<path d="M282.594 260.286C281.33 262.96 282.37 266.103 284.917 267.307C287.464 268.51 290.554 267.318 291.818 264.644C293.082 261.971 292.043 258.827 289.496 257.624C286.949 256.42 283.859 257.612 282.594 260.286Z" fill="#090909"/>
<path d="M313.219 262.463C313.178 265.401 315.346 267.813 318.061 267.851C320.777 267.888 323.011 265.538 323.052 262.6C323.093 259.663 320.925 257.251 318.21 257.213C315.495 257.175 313.26 259.526 313.219 262.463Z" fill="#090909"/>
<path d="M350.393 266.413C352.558 264.61 352.963 261.53 351.299 259.534C349.635 257.538 346.532 257.381 344.367 259.183C342.203 260.986 341.797 264.066 343.461 266.062C345.125 268.058 348.229 268.215 350.393 266.413Z" fill="#090909"/>
<path d="M373.395 263.717C373.543 266.289 375.596 268.262 377.979 268.125C380.363 267.988 382.174 265.791 382.026 263.22C381.878 260.648 379.825 258.675 377.442 258.812C375.059 258.95 373.247 261.146 373.395 263.717Z" fill="#090909"/>
<path d="M569.983 269.417C569.269 271.368 570.182 273.496 572.023 274.17C573.863 274.843 575.935 273.807 576.649 271.855C577.364 269.904 576.451 267.776 574.61 267.102C572.769 266.429 570.698 267.465 569.983 269.417Z" fill="#090909"/>
<path d="M569.537 312.222C567.104 310.881 564.548 308.383 564.568 305.495C564.584 303.591 566.679 303.202 567.595 304.671C569.634 307.948 572.415 308.92 575.959 309.949C576.171 310.011 576.324 310.142 576.42 310.344C576.847 311.272 576.599 311.966 575.677 312.427C573.656 313.434 571.609 313.366 569.537 312.222Z" fill="#090909"/>
<path d="M364.732 382.028C358.573 381.898 351.814 381.787 344.456 381.695C343.462 381.68 342.863 380.482 342.617 379.652C340.174 371.338 335.109 364.78 329.045 358.304C322.94 351.781 317.316 345.74 310.54 340.411C308.352 338.691 305.975 337.999 303.411 338.337C300.548 338.716 300.282 341.148 300.507 343.483C300.695 345.411 301.369 347.109 302.53 348.576C305.313 352.099 308.359 355.718 311.667 359.435C312.166 359.995 312.316 360.623 312.118 361.319C312.06 361.517 311.935 361.652 311.744 361.724C310.238 362.287 308.814 362.732 308.113 364.324C307.181 366.449 307.186 368.021 304.953 369.336C304.058 369.859 303.781 370.601 304.123 371.563C305.618 375.802 301.183 377.517 300.277 381.065C300.108 381.736 299.524 382.11 298.848 382.125C293.262 382.231 287.949 382.135 282.909 381.838C278.3 381.569 270.484 381.536 259.462 381.741C254.151 381.838 248.707 381.598 243.426 381.316C239.949 381.132 236.517 381.26 233.04 381.495C229.659 381.721 230.054 378.009 230.054 375.859C230.047 360.203 230.062 344.86 230.1 329.829C230.105 327.852 230.648 325.825 233.04 325.764C235.191 325.706 237.241 325.697 239.191 325.738C259.834 326.154 280.487 326.571 301.147 326.987C303.949 327.044 306.745 326.967 309.588 327.125C311.049 327.207 312.464 327.213 313.834 327.141C315.616 327.049 317.403 327.31 319.227 327.34C337.043 327.651 354.09 327.832 370.366 327.883C373.024 327.893 375.145 328.41 375.339 331.569C375.554 335.143 375.614 338.593 375.519 341.921C375.249 351.304 374.972 361.672 374.689 373.028C374.662 374.072 374.677 375.154 374.735 376.273C374.899 379.509 374.955 381.971 370.807 382.043C368.888 382.077 366.863 382.072 364.732 382.028Z" fill="#165EF0"/>
<path d="M311.426 380.395C312.01 379.456 311.821 378.623 310.858 377.896C308.768 376.325 305.465 374.22 307.114 371.804C307.288 371.551 307.554 371.376 307.854 371.316C308.154 371.255 308.466 371.315 308.722 371.481L312.563 373.975C312.734 374.087 312.943 374.129 313.147 374.092C314.064 373.924 314.817 372.828 314.11 371.947C313.014 370.565 310.013 368.353 311.729 366.347C313.239 364.585 316.041 367.191 317.921 366.823C318.087 366.789 318.244 366.721 318.381 366.622C318.519 366.524 318.634 366.397 318.718 366.25C318.803 366.104 318.855 365.941 318.871 365.773C318.887 365.605 318.867 365.436 318.812 365.277C318.658 364.836 318.45 364.41 318.187 363.997C315.582 359.87 312.97 356.363 310.351 353.476C308.548 351.49 306.836 349.553 305.214 347.665C304.329 346.631 303.599 345.317 303.022 343.723C302.494 342.269 303.529 340.856 305.004 340.81C305.687 340.786 306.351 341.01 306.996 341.481C313.91 346.493 319.416 353.722 325.393 359.978C328.159 362.872 330.318 365.323 331.872 367.33C335.198 371.627 338.021 376.929 340.343 383.236C341.972 387.656 343.273 391.465 344.246 394.663C345.475 398.701 347.696 402.429 350.909 405.849C351.534 406.515 351.496 407.199 350.796 407.902C346.289 412.438 341.255 417.582 335.693 423.333C335.017 424.029 334.008 423.952 333.455 423.112C328.789 416.053 322.75 409.981 315.262 406.341C309.726 403.648 305.045 399.982 302.602 394.294C302.076 393.072 301.922 391.729 302.141 390.265C302.23 389.671 302.576 389.362 303.181 389.339C303.891 389.311 304.647 389.327 305.449 389.385C306.843 389.477 307.252 388.166 306.679 387.071C306.149 386.053 305.56 385.081 304.912 384.152C303.892 382.688 303.851 380.282 306.131 380.036C307.152 379.927 308.249 380.087 309.424 380.518C309.943 380.712 310.475 380.763 311.022 380.671C311.199 380.64 311.334 380.548 311.426 380.395Z" fill="white"/>
<path d="M106.177 343.636C106.402 347.029 106.499 350.447 106.469 353.891C106.315 369.587 106.407 385.299 106.294 401.006C106.008 440.555 105.629 477.057 105.926 519.381C105.933 520.412 106.141 522.154 106.551 524.608C107.708 531.535 112.553 534.263 119.006 534.842C122.697 535.173 126.264 535.332 129.706 535.318C178.361 535.11 218.225 535.118 249.296 535.344C280.64 535.566 313.857 535.822 348.948 536.112C351.98 536.136 355.216 536.074 358.658 535.927C362.076 535.784 365.258 535.62 368.205 535.436C372.026 535.197 375 533.617 377.127 530.695C379.17 527.884 379.462 524.736 379.437 521.285C379.324 508.681 379.124 495.979 379.119 483.539C379.119 483.393 379.173 483.253 379.27 483.143C379.367 483.034 379.501 482.964 379.647 482.945C379.916 482.911 380.195 483.02 380.481 483.272C387.959 489.831 395.145 496.594 402.489 502.973C406.334 506.311 410.805 509.473 415.903 512.459C422.387 516.258 429.147 514.763 434.976 510.57C464.903 489.058 494.003 468.189 522.274 447.963C522.721 447.642 523.034 447.478 523.211 447.471C523.894 447.441 524.219 447.768 524.184 448.454C523.276 465.499 522.428 483.1 521.639 501.258C521.448 505.643 521.187 510.022 520.855 514.394C520.312 521.514 519.795 532.209 519.303 546.479C519.201 549.52 519.201 552.417 518.735 555.458C518.53 556.786 518.513 558.204 518.684 559.713C518.722 560.048 518.652 560.387 518.485 560.679C518.317 560.971 518.06 561.201 517.752 561.336C517.171 561.592 516.594 561.721 516.021 561.725C484.113 561.783 452.661 561.904 421.665 562.088C413.137 562.14 404.691 562.114 396.287 562.16C374.52 562.28 352.753 562.365 330.986 562.416C330.378 562.419 329.781 562.421 329.193 562.421C289.907 562.394 250.556 562.568 211.14 562.943C207.63 562.974 204.212 562.991 200.886 562.994C170.378 563.029 139.778 563.042 109.086 563.035C105.784 563.035 102.371 563.053 98.8476 563.087C81.6799 563.247 64.5446 563.191 47.4417 562.918C44.6829 560.952 41.9582 558.962 39.2676 556.948C38.0384 556.027 37.0158 555.073 36.1997 554.086C35.0013 552.643 33.6594 551.358 32.4814 549.842C30.4225 547.187 28.3551 544.446 26.2791 541.62C24.9577 539.825 23.7781 537.99 22.7401 536.117C21.3521 533.613 19.8412 531.105 18.653 528.427C16.5156 523.618 14.8869 519.231 13.767 515.265C13.1831 513.2 12.5668 511.048 11.918 508.809C11.2386 506.464 10.7401 504.27 10.4225 502.225C9.1626 494.143 8.60435 487.29 8.74775 481.665C8.83653 478.081 9.39137 472.163 10.4123 463.91C10.6137 462.272 10.9654 460.767 11.4673 459.395C11.9556 458.064 12.3022 456.606 12.507 455.023C12.6948 453.576 13.0158 452.031 13.4699 450.389C14.5864 446.362 15.7234 442.439 16.8809 438.62C18.5813 432.998 20.2766 428.551 21.9667 425.278C23.7559 421.814 25.5894 418.23 27.4673 414.527C27.831 413.805 28.3944 413.17 28.7682 412.448C31.9232 406.322 34.3252 402.023 35.9744 399.552C38.8425 395.262 41.9906 390.811 45.4187 386.2C46.8801 384.231 48.3278 382.487 49.7618 380.968C51.8771 378.721 53.6799 376.151 55.9949 374.031C57.8626 372.321 59.4844 370.638 60.8604 368.983C61.5604 368.143 62.3252 367.428 63.1549 366.838C65.4392 365.21 67.2522 362.973 69.5672 361.201C71.7525 359.532 73.9411 357.938 76.1332 356.42C77.5672 355.432 78.8528 354.305 80.4046 353.522C81.5621 352.938 82.7025 352.368 83.8259 351.812C84.9595 351.249 86.0896 350.657 87.2164 350.036C89.9957 348.506 92.7734 347.274 95.5493 346.339C97.8165 345.575 99.9471 344.773 101.941 343.933C102.627 343.646 104.039 343.547 106.177 343.636Z" fill="#165EF0" fill-opacity="0.25"/>
<path d="M584.338 352.206C589.475 354.244 594.1 356.179 599.642 356.839C605.077 357.485 610.446 357.848 615.749 357.93C622.281 358.032 628.731 357.101 635.099 355.135C636.249 354.783 636.988 355.186 637.316 356.343L637.567 357.234C637.902 358.415 637.478 359.167 636.297 359.491C631.527 360.805 627.049 361.604 622.863 361.887C620.097 362.075 617.05 362.316 613.721 362.609C611.693 362.788 609.772 362.271 607.744 362.205C599.198 361.928 590.8 360.22 582.551 357.08C581.96 356.858 581.518 356.485 581.224 355.959C581.181 355.883 581.154 355.8 581.145 355.713C581.136 355.627 581.146 355.539 581.173 355.457C581.501 354.461 582.026 353.517 582.75 352.626C583.181 352.094 583.71 351.954 584.338 352.206Z" fill="white"/>
<path d="M512.271 379.801C514.621 378.067 516.889 376.362 519.078 374.686C523.756 371.113 528.804 368.76 534.223 367.626C539.846 366.446 549.012 364.681 561.721 362.333C567.134 361.334 572.394 360.664 577.726 360.157C577.945 360.136 578.165 360.131 578.387 360.142C578.534 360.148 578.67 360.174 578.796 360.218C595.242 366.336 612.205 368.83 629.193 365.876C634.566 364.944 639.775 362.886 645.275 362.712C646.545 362.671 648.102 362.797 649.946 363.09C658.049 364.384 664.959 365.585 670.679 366.695C673.359 367.217 676.468 368.027 680.005 369.126C685.163 370.734 688.697 374.082 692.369 378.797C699.218 387.6 706.015 396.149 712.758 404.446C714.738 406.88 716.838 409.578 719.058 412.54C724.609 419.95 730.04 427.618 735.35 435.543C737.422 438.632 739.408 441.932 741.306 445.444C742.325 447.323 743.421 449.36 743.437 451.541C743.45 453.477 743.097 455.146 742.376 456.548C737.927 465.204 732.258 475.46 725.367 487.317C716.084 503.3 706.663 519.461 697.106 535.799C696.744 536.417 696.314 536.973 695.816 537.468C695.669 537.612 695.534 537.603 695.411 537.443C694.971 536.886 694.771 536.223 694.812 535.451C694.907 533.779 694.846 532.088 694.627 530.378C694.344 528.139 695.017 525.837 696.645 523.471C704.772 511.666 713.067 499.421 721.531 486.738C722.371 485.482 722.301 484.269 721.321 483.098C711.385 471.194 701.724 459.69 692.338 448.587C691.447 447.536 690.982 446.68 690.945 446.017C690.883 444.999 690.935 443.657 690.474 442.725C689.813 441.379 689.024 440.626 687.431 441.312C686.064 441.896 686.085 444.164 686.125 445.403C686.561 457.327 686.863 469.368 687.452 481.358C688.695 506.666 689.881 532.224 691.011 558.034C691.083 559.677 690.725 561.136 688.748 561.259C687.35 561.341 685.9 561.075 684.471 561.121C664.2 561.728 643.894 561.887 623.554 561.597C619.833 561.542 616.367 561.515 613.157 561.515C583.94 561.501 554.308 561.498 524.261 561.505C522.861 561.505 522.236 560.81 522.387 559.421C522.735 556.264 522.935 553.537 522.986 551.24C523.129 545.25 523.078 539.342 523.472 533.188C524.248 521.069 524.741 512.241 524.953 506.705C525.017 505.046 525.108 503.343 525.224 501.595C526.033 489.493 526.759 477.223 527.401 464.786C527.713 458.786 527.79 452.606 528.036 446.698C528.102 445.147 528.594 443.284 529.762 442.193C530.137 441.841 530.508 441.478 530.873 441.103C530.989 440.982 531.077 440.838 531.131 440.68C531.185 440.522 531.203 440.353 531.186 440.186C531.037 438.763 529.762 438.261 528.538 438.855C527.23 439.49 526.096 440.138 525.137 440.801C492.42 463.419 460.405 486.032 429.091 508.64C425.465 511.261 421.362 510.893 417.562 508.901C411.727 505.843 406.095 501.848 400.666 496.916C381.91 479.878 362.931 461.318 343.729 441.236C342.677 440.137 342.706 439.039 343.816 437.944C350.791 431.046 358.016 423.872 365.49 416.421C366.156 415.756 367.872 413.974 368.912 414.527C369.762 414.981 370.581 415.494 371.37 416.068C385.789 426.549 399.606 436.287 412.819 445.28C416.2 447.579 419.206 449.376 423.355 448.465C424.71 448.164 426.815 446.929 429.67 444.758C439.213 437.502 448.249 430.322 456.778 423.22C459.544 420.92 462.189 418.762 464.712 416.749C480.07 404.486 495.653 392.34 511.462 380.313C511.734 380.108 512.005 379.995 512.271 379.801Z" fill="#165EF0"/>
<path d="M363.544 412.443C362.878 413.395 362.055 414.356 361.076 415.326C353.383 422.92 347.874 428.597 344.548 432.358C343.148 433.942 341.695 435.481 340.189 436.976C340.128 437.036 340.046 437.069 339.961 437.068C339.875 437.067 339.793 437.032 339.734 436.971C338.59 435.787 337.427 434.567 336.246 433.311C334.873 431.857 334.228 430.438 335.749 428.718C341.164 422.582 347.469 415.955 354.663 408.839C355.589 407.924 356.531 407.272 357.49 406.883C357.656 406.817 357.841 406.812 358.013 406.868C360 407.523 361.962 409.156 363.385 410.651C363.928 411.218 363.981 411.815 363.544 412.443Z" fill="white"/>
<path d="M694.653 478.701C693.096 478.307 691.995 477.175 691.979 475.532C691.928 468.666 691.872 462.098 691.068 455.171C691.046 454.986 691.092 454.799 691.196 454.644C691.3 454.489 691.456 454.376 691.636 454.326C692.002 454.224 692.389 454.419 692.799 454.91C700.478 464.149 707.942 473.201 715.191 482.064C716.669 483.87 716.736 485.769 715.391 487.762C708.889 497.391 702.361 507.229 695.805 517.277C695.452 517.814 694.878 517.953 694.279 517.691C694.122 517.624 693.99 517.509 693.901 517.364C693.812 517.218 693.771 517.048 693.782 516.877C693.864 515.696 693.88 514.519 693.828 513.345C693.647 509.225 693.559 505.225 693.562 501.345C693.566 499.471 693.337 497.401 692.876 495.135C692.568 493.635 693.618 492.38 694.945 491.853C698.335 490.512 700.497 486.334 699.447 482.955C698.771 480.784 696.85 479.269 694.653 478.701Z" fill="white"/>
<path d="M692.615 481.977C692.614 481.959 692.617 481.941 692.623 481.925C692.63 481.908 692.639 481.893 692.652 481.88C692.664 481.867 692.679 481.857 692.696 481.85C692.712 481.843 692.73 481.839 692.748 481.839L693.178 481.834C694.033 481.819 694.86 482.158 695.475 482.775C696.091 483.393 696.446 484.238 696.461 485.126L696.471 485.617C696.485 486.505 696.16 487.361 695.565 487.999C694.971 488.636 694.156 489.002 693.301 489.017L692.871 489.027C692.835 489.027 692.801 489.013 692.776 488.988C692.751 488.963 692.737 488.929 692.737 488.894L692.615 481.977Z" fill="white"/>
</g>
<defs>
<clipPath id="clip0_1_3">
<rect width="800" height="578" fill="white"/>
</clipPath>
</defs>
</svg>
